<svg xmlns="http://www.w3.org/2000/svg" xmlns:xlink="http://www.w3.org/1999/xlink" width="32pt" height="32pt" version="1.1" viewBox="0 0 32 32"><defs><linearGradient id="linear0" x1="-565.751" x2="-318.895" y1="-17.45" y2="-264.341" gradientTransform="matrix(0.0639232,0,0,-0.0639168,44.076256,7.199782)" gradientUnits="userSpaceOnUse"><stop offset="0" style="stop-color:#000;stop-opacity:1"/><stop offset="1" style="stop-color:#fff;stop-opacity:1"/></linearGradient><linearGradient id="linear1" x1="-307.717" x2="-554.573" y1="-253.164" y2="-6.274" gradientTransform="matrix(0.0639232,0,0,-0.0639168,44.076256,7.199782)" gradientUnits="userSpaceOnUse"><stop offset="0" style="stop-color:#000;stop-opacity:1"/><stop offset="1" style="stop-color:#fff;stop-opacity:1"/></linearGradient></defs><g id="surface1"><path style="stroke:none;fill-rule:nonzero;fill:url(#linear0)" d="M 15.980469 21.472656 C 20.933594 28.230469 25.785156 19.585938 25.777344 14.386719 C 25.773438 8.242188 19.546875 4.804688 15.972656 4.804688 C 10.253906 4.8125 4.800781 9.542969 4.800781 16.019531 C 4.800781 23.210938 11.054688 27.199219 15.972656 27.199219 C 14.859375 27.039062 11.140625 26.246094 11.089844 17.683594 C 11.058594 11.898438 12.980469 9.582031 15.960938 10.597656 C 16.027344 10.625 19.25 11.898438 19.25 16.050781 C 19.265625 20.191406 15.980469 21.472656 15.980469 21.472656 Z M 15.980469 21.472656"/><path style="stroke:none;fill-rule:nonzero;fill:url(#linear1)" d="M 15.972656 10.597656 C 12.699219 9.472656 8.691406 12.167969 8.691406 17.574219 C 8.691406 26.398438 15.230469 27.199219 16.027344 27.199219 C 21.753906 27.199219 27.199219 22.46875 27.199219 15.992188 C 27.199219 8.800781 20.945312 4.8125 16.027344 4.8125 C 17.390625 4.621094 23.378906 6.292969 23.378906 14.476562 C 23.378906 19.8125 18.90625 22.726562 15.992188 21.476562 C 15.929688 21.453125 12.703125 20.179688 12.703125 16.027344 C 12.703125 11.890625 15.972656 10.597656 15.972656 10.597656 Z M 15.972656 10.597656"/></g></svg>