<svg xmlns="http://www.w3.org/2000/svg" xmlns:xlink="http://www.w3.org/1999/xlink" width="88" height="32pt" version="1.1" viewBox="0 0 66 32"><g id="surface1"><path style="fill:none;stroke-width:15;stroke-linecap:butt;stroke-linejoin:miter;stroke:#df6c20;stroke-opacity:1;stroke-miterlimit:4" d="M 204.989347 50.009766 C 204.989347 30.673828 166.933002 15 119.998816 15 C 73.064631 15 35.008286 30.673828 35.008286 50.009766 C 35.008286 69.316406 73.064631 84.990234 119.998816 84.990234 C 166.933002 84.990234 204.989347 69.316406 204.989347 50.009766 Z M 204.989347 50.009766" transform="matrix(0.132,0,0,0.133333,0,0)"/><path style="fill:none;stroke-width:15;stroke-linecap:butt;stroke-linejoin:miter;stroke:#df6c20;stroke-opacity:1;stroke-miterlimit:4" d="M 35.008286 50.009766 L 35.008286 200.009766 C 36.665483 219.345703 76.053504 235.048828 122.987689 235.048828 C 169.921875 235.048828 206.646544 219.345703 204.989347 200.009766 L 204.989347 50.009766 M 35.008286 99.990234 C 36.665483 119.355469 76.053504 135.058594 122.987689 135.058594 C 169.921875 135.058594 206.646544 119.355469 204.989347 99.990234 M 35.008286 150 C 36.665483 169.365234 76.053504 185.039062 122.987689 185.039062 C 169.921875 185.039062 206.646544 169.365234 204.989347 150" transform="matrix(0.132,0,0,0.133333,0,0)"/><path style="fill:none;stroke-width:15;stroke-linecap:butt;stroke-linejoin:miter;stroke:#df6c20;stroke-opacity:1;stroke-miterlimit:4" d="M 300.011837 99.990234 C 300.011837 86.191406 288.796165 75 275.005919 75 C 261.18608 75 250 86.191406 250 99.990234 C 249.733665 107.900391 252.485795 115.488281 257.427794 120.410156 C 262.340199 125.332031 268.880208 127.060547 275.005919 125.009766 C 280.332623 124.951172 285.452178 127.558594 289.210464 132.246094 C 292.939157 136.933594 295.040246 143.349609 295.010653 150 C 293.619792 163.798828 281.309186 173.876953 267.489347 172.5 C 253.6991 171.123047 243.607955 158.818359 244.998816 144.990234" transform="matrix(0.132,0,0,0.133333,0,0)"/><path style="fill:none;stroke-width:15;stroke-linecap:butt;stroke-linejoin:miter;stroke:#df6c20;stroke-opacity:1;stroke-miterlimit:4" d="M 375 174.990234 C 349.254261 179.238281 324.603456 162.978516 318.359375 137.666016 C 312.085701 112.353516 326.349432 86.484375 351.089015 78.222656 C 375.828598 69.990234 402.728456 82.119141 412.908381 106.142578 C 423.088305 130.136719 413.11553 157.939453 390.003551 170.009766 M 375 150 L 405.007102 189.990234" transform="matrix(0.132,0,0,0.133333,0,0)"/><path style="fill:none;stroke-width:15;stroke-linecap:butt;stroke-linejoin:miter;stroke:#df6c20;stroke-opacity:1;stroke-miterlimit:4" d="M 439.985795 69.990234 L 439.985795 150 C 439.985795 163.798828 451.201468 174.990234 464.991714 174.990234 L 484.996449 174.990234" transform="matrix(0.132,0,0,0.133333,0,0)"/></g></svg>