<svg xmlns="http://www.w3.org/2000/svg" xmlns:xlink="http://www.w3.org/1999/xlink" width="104" height="32pt" version="1.1" viewBox="0 0 78 32"><g id="surface1"><path style="stroke:none;fill-rule:evenodd;fill:#af0084;fill-opacity:1" d="M 72.292969 7.089844 C 72.453125 5.722656 72.558594 4.015625 73.105469 2.84375 C 73.511719 4.058594 73.652344 5.632812 74.492188 6.550781 C 75.582031 6.296875 76.796875 6.359375 77.917969 6.597656 C 77.246094 7.476562 75.78125 8.070312 74.90625 8.636719 C 75.957031 9.515625 76.472656 10.539062 77.046875 11.753906 C 75.519531 11.726562 74.125 10.410156 72.945312 9.703125 C 71.929688 10.839844 71.214844 11.941406 69.722656 12.351562 C 70.261719 11.214844 71.519531 10.234375 71.675781 9.054688 C 70.484375 8.617188 69.007812 7.675781 68.234375 6.722656 C 69.464844 6.796875 71.0625 6.949219 72.292969 7.09375"/><path style="stroke:none;fill-rule:evenodd;fill:#98c000;fill-opacity:1" d="M 73.5625 15.75 C 73.675781 14.757812 73.757812 13.515625 74.148438 12.660156 C 74.445312 13.546875 74.546875 14.6875 75.15625 15.355469 C 75.945312 15.167969 76.832031 15.214844 77.644531 15.386719 C 77.15625 16.019531 76.097656 16.460938 75.460938 16.867188 C 76.230469 17.5 76.605469 18.25 77.015625 19.132812 C 75.90625 19.113281 74.890625 18.152344 74.035156 17.644531 C 73.300781 18.46875 72.78125 19.269531 71.695312 19.566406 C 72.085938 18.742188 73 18.027344 73.109375 17.175781 C 72.246094 16.855469 71.175781 16.171875 70.609375 15.480469 C 71.5 15.535156 72.664062 15.648438 73.554688 15.75"/><path style="stroke:none;fill-rule:evenodd;fill:#f08400;fill-opacity:1" d="M 69.757812 22.589844 C 69.835938 21.898438 69.890625 21.042969 70.164062 20.453125 C 70.367188 21.066406 70.4375 21.855469 70.859375 22.3125 C 71.40625 22.183594 72.015625 22.214844 72.578125 22.335938 C 72.238281 22.773438 71.507812 23.078125 71.070312 23.359375 C 71.597656 23.796875 71.855469 24.3125 72.140625 24.921875 C 71.375 24.90625 70.675781 24.25 70.082031 23.890625 C 69.570312 24.460938 69.210938 25.015625 68.464844 25.222656 C 68.734375 24.652344 69.363281 24.160156 69.441406 23.570312 C 68.84375 23.351562 68.101562 22.882812 67.714844 22.398438 C 68.332031 22.4375 69.136719 22.515625 69.75 22.585938"/><path style="stroke:none;fill-rule:evenodd;fill:#005fad;fill-opacity:1" d="M 12.875 22.148438 C 12.238281 22.148438 5.074219 29.050781 4.375 29.867188 C 3.792969 30.507812 3.476562 31.6875 2.472656 31.816406 C 1.40625 31.960938 1.167969 31.550781 0.652344 30.757812 C 0.167969 30.003906 -0.417969 28.667969 0.429688 28.121094 C 1.246094 27.601562 11.398438 18.398438 11.71875 18.019531 C 12.113281 17.625 11.679688 16.640625 11.488281 15.152344 C 11.246094 13.246094 11.125 11.496094 11.273438 9.605469 C 11.425781 7.667969 11.894531 5.277344 12.402344 3.394531 C 12.714844 2.246094 12.535156 -0.0234375 14.152344 -0.09375 C 14.480469 -0.015625 16.972656 1.6875 16.300781 3.933594 C 15.332031 7.152344 14.398438 10.773438 14.683594 14.222656 C 14.738281 14.890625 15.011719 15.464844 15.4375 15.160156 C 20.035156 11.910156 27.234375 8.382812 29.074219 7.753906 C 29.960938 7.476562 30.867188 7.257812 31.789062 7.144531 C 32.445312 7.21875 32.949219 7.832031 33.46875 8.265625 C 36.074219 10.476562 31.011719 18.304688 30.582031 20.691406 C 30.988281 20.691406 31.425781 20.082031 32.199219 19.390625 C 33.023438 18.648438 34.304688 17.484375 35.25 16.578125 C 36.695312 15.507812 37.957031 14.523438 39.789062 14.289062 C 44.199219 13.734375 42.878906 20.011719 41.882812 22.257812 C 42.453125 22.257812 43.84375 20.675781 44.953125 19.636719 C 45.511719 19.109375 46.132812 18.554688 46.695312 18.042969 C 47.367188 17.429688 47.679688 17.113281 48.1875 17.359375 C 48.527344 17.453125 50 18.335938 50.082031 19.6875 C 50.152344 20.777344 49.699219 21.851562 49.476562 22.898438 C 49.292969 23.777344 49.335938 26.632812 50.535156 26.636719 C 51.007812 26.300781 51.625 26.15625 52.191406 26.0625 C 53.097656 25.910156 53.054688 26.203125 53.800781 26.476562 C 54.976562 26.910156 53.917969 28.554688 53.300781 29.164062 C 52.46875 29.980469 51.28125 30.519531 50.097656 30.5 C 48.789062 30.476562 47.761719 29.683594 47.171875 28.566406 C 46.851562 27.953125 46.4375 25.695312 46.28125 25.023438 C 46.121094 24.363281 46.257812 23.574219 45.550781 24.242188 C 43.550781 26.144531 41.492188 27.914062 39.460938 29.789062 C 37.222656 31.855469 35.085938 29.019531 35.492188 26.703125 C 35.894531 24.4375 37.871094 21.671875 38.226562 19.425781 C 37.28125 19.425781 35.6875 21.054688 35.085938 21.726562 C 34.109375 22.820312 33.027344 24.03125 31.921875 25.179688 C 30.8125 26.332031 29.859375 27.394531 28.746094 28.542969 C 27.941406 29.371094 27.019531 30.550781 25.664062 30.625 C 24.996094 30.519531 23.933594 29.421875 23.75 28.019531 C 23.597656 26.855469 23.898438 25.566406 24.347656 24.496094 C 25.65625 21.390625 29.238281 14.832031 30.074219 11.570312 C 28.355469 11.734375 21.070312 15.066406 16.25 19.035156 C 14.855469 20.171875 16.144531 22.253906 16.726562 23.640625 C 17.351562 25.121094 19.195312 27.800781 19.746094 28.257812 C 21.191406 29.445312 20.039062 30.492188 18.605469 30.417969 C 17.996094 29.992188 17.261719 29.535156 16.691406 28.96875 C 16.070312 28.355469 15.535156 27.65625 15.046875 26.941406 C 14.058594 25.492188 13.113281 23.816406 12.859375 22.0625"/><path style="stroke:none;fill-rule:evenodd;fill:#005fad;fill-opacity:1" d="M 64.683594 3.5625 C 64.273438 2.0625 62.375 4.355469 61.421875 5.566406 C 58.792969 8.917969 56.394531 15.730469 56.007812 16.984375 C 54.828125 20.835938 54.371094 25.582031 56.921875 28.96875 C 58.40625 30.945312 61.015625 31.097656 63.578125 30.367188 C 64.898438 29.992188 66.222656 29.058594 66.675781 28.035156 C 67.046875 27.1875 67.242188 25.605469 65.355469 26.8125 C 64.625 27.277344 63.289062 27.789062 60.890625 27.753906 C 60.085938 27.738281 58.765625 26.597656 58.410156 25.417969 C 57.789062 23.496094 58.054688 20.933594 58.054688 20.933594 C 58.597656 17.617188 60.152344 14.03125 61.515625 11.019531 C 62.042969 9.855469 63.660156 6.957031 64.261719 6.035156 C 64.261719 6.035156 65.035156 4.832031 64.6875 3.550781 Z M 64.683594 3.5625"/></g></svg>