<svg xmlns="http://www.w3.org/2000/svg" xmlns:xlink="http://www.w3.org/1999/xlink" width="32pt" height="32pt" version="1.1" viewBox="0 0 32 32"><g id="surface1"><path style="stroke:none;fill-rule:nonzero;fill:#9a4993;fill-opacity:1" d="M 26.394531 11.1875 C 26.394531 10.796875 26.308594 10.445312 26.136719 10.152344 C 25.972656 9.855469 25.722656 9.613281 25.390625 9.421875 C 22.625 7.828125 19.851562 6.234375 17.089844 4.640625 C 16.339844 4.210938 15.621094 4.222656 14.878906 4.660156 C 13.777344 5.304688 8.261719 8.46875 6.625 9.421875 C 5.945312 9.8125 5.621094 10.414062 5.621094 11.195312 C 5.621094 14.398438 5.621094 17.613281 5.621094 20.820312 C 5.621094 21.203125 5.703125 21.542969 5.863281 21.835938 C 6.027344 22.136719 6.285156 22.394531 6.625 22.59375 C 8.269531 23.546875 13.777344 26.699219 14.878906 27.355469 C 15.621094 27.789062 16.34375 27.808594 17.089844 27.371094 C 19.851562 25.773438 22.625 24.1875 25.390625 22.59375 C 25.734375 22.394531 25.984375 22.144531 26.152344 21.835938 C 26.308594 21.542969 26.394531 21.203125 26.394531 20.820312 C 26.394531 20.8125 26.394531 14.394531 26.394531 11.1875"/><path style="stroke:none;fill-rule:nonzero;fill:#6a1577;fill-opacity:1" d="M 16.03125 15.96875 L 5.847656 21.832031 C 6.015625 22.132812 6.273438 22.386719 6.609375 22.585938 C 8.257812 23.539062 13.765625 26.695312 14.867188 27.347656 C 15.609375 27.78125 16.332031 27.800781 17.074219 27.367188 C 19.839844 25.765625 22.609375 24.179688 25.375 22.585938 C 25.722656 22.386719 25.972656 22.136719 26.136719 21.832031 L 16.03125 15.96875"/><path style="stroke:none;fill-rule:nonzero;fill:#6a1577;fill-opacity:1" d="M 13.019531 17.703125 C 13.613281 18.738281 14.726562 19.4375 16 19.4375 C 17.285156 19.4375 18.40625 18.734375 18.996094 17.683594 L 16.03125 15.96875 L 13.019531 17.703125"/><path style="stroke:none;fill-rule:nonzero;fill:#813084;fill-opacity:1" d="M 26.394531 11.1875 C 26.394531 10.796875 26.308594 10.445312 26.136719 10.152344 L 16.03125 15.96875 L 26.152344 21.832031 C 26.308594 21.535156 26.394531 21.195312 26.394531 20.8125 C 26.394531 20.8125 26.394531 14.394531 26.394531 11.1875"/><path style="stroke:none;fill-rule:nonzero;fill:#fff;fill-opacity:1" d="M 18.996094 17.683594 C 18.40625 18.726562 17.285156 19.4375 16 19.4375 C 14.71875 19.4375 13.605469 18.738281 13.019531 17.703125 C 12.730469 17.195312 12.5625 16.621094 12.5625 16 C 12.5625 14.097656 14.097656 12.5625 16 12.5625 C 17.265625 12.5625 18.375 13.253906 18.96875 14.277344 L 21.972656 12.550781 C 20.773438 10.488281 18.546875 9.101562 15.992188 9.101562 C 12.179688 9.101562 9.09375 12.191406 9.09375 16 C 9.09375 17.246094 9.425781 18.425781 10.007812 19.4375 C 11.199219 21.503906 13.441406 22.898438 16 22.898438 C 18.566406 22.898438 20.804688 21.496094 21.996094 19.417969 L 18.996094 17.683594"/><path style="stroke:none;fill-rule:nonzero;fill:#fff;fill-opacity:1" d="M 22.105469 14.367188 L 22.789062 14.367188 L 22.789062 17.675781 L 22.105469 17.675781 Z M 22.105469 14.367188"/><path style="stroke:none;fill-rule:nonzero;fill:#fff;fill-opacity:1" d="M 23.621094 14.367188 L 24.308594 14.367188 L 24.308594 17.675781 L 23.621094 17.675781 Z M 23.621094 14.367188"/><path style="stroke:none;fill-rule:nonzero;fill:#fff;fill-opacity:1" d="M 21.554688 14.925781 L 24.863281 14.925781 L 24.863281 15.609375 L 21.554688 15.609375 Z M 21.554688 14.925781"/><path style="stroke:none;fill-rule:nonzero;fill:#fff;fill-opacity:1" d="M 21.554688 16.433594 L 24.863281 16.433594 L 24.863281 17.121094 L 21.554688 17.121094 Z M 21.554688 16.433594"/></g></svg>