<svg xmlns="http://www.w3.org/2000/svg" width="32" height="32" version="1.1" viewBox="0 0 56 54"><defs><style>.cls-1{fill:#002258}.cls-2{fill:#7badff}</style></defs><g><g data-name="Outline no shadow copy 3" transform="translate(-3.9998,-2)"><rect width="56" height="54" x="4" y="2" class="cls-1" rx="9.914" ry="9.914"/></g></g><g data-name="Outlined Mnemonics &amp; Logos"><path d="m34.701 35.377v3.811a0.48846 0.48846 0 0 1-0.29639 0.51807 9.9532 9.9532 0 0 1-2.2383 0.49951 23.829 23.829 0 0 1-2.9048 0.1665 16.359 16.359 0 0 1-4.0884-0.49951 12.094 12.094 0 0 1-3.5337-1.5171 10.783 10.783 0 0 1-2.7378-2.4976 11.063 11.063 0 0 1-1.7759-3.4409 14.493 14.493 0 0 1-0.62891-4.44 12.933 12.933 0 0 1 1.6279-6.5676 11.223 11.223 0 0 1 4.625-4.4031 15.181 15.181 0 0 1 7.1406-1.5725 23.368 23.368 0 0 1 2.8677 0.1482 8.6057 8.6057 0 0 1 1.9429 0.44384 0.47678 0.47678 0 0 1 0.18457 0.44409v4.0701c0 0.22193-0.08692 0.2959-0.25879 0.22193a8.0023 8.0023 0 0 0-2.1831-0.64746 16.975 16.975 0 0 0-2.7007-0.20362 8.5477 8.5477 0 0 0-4.2554 0.999 6.9255 6.9255 0 0 0-2.7378 2.7566 8.5398 8.5398 0 0 0-0.96191 4.1624 8.9989 8.9989 0 0 0 0.4624 3.0342 7.2031 7.2031 0 0 0 1.2764 2.2568 6.327 6.327 0 0 0 1.8501 1.5171 9.1202 9.1202 0 0 0 2.2012 0.83252 9.8108 9.8108 0 0 0 2.2759 0.27758 24.964 24.964 0 0 0 2.4976-0.11108 9.0565 9.0565 0 0 0 2.0532-0.44409q0.14721-0.111 0.22217-0.05542a0.29553 0.29553 0 0 1 0.07422 0.24054z" class="cls-2" transform="translate(-3.9998,-2)"/><path d="m38.808 25.905h-2.2202c-0.17286-0.02441-0.25928-0.11108-0.25928-0.259v-3.774a0.22919 0.22919 0 0 1 0.25928-0.259h2.2202v-0.592a13.001 13.001 0 0 1 0.18457-2.3125 7.3354 7.3354 0 0 1 0.59229-1.8686 6.421 6.421 0 0 1 2.1089-2.479 6.185 6.185 0 0 1 3.626-0.96191 9.4668 9.4668 0 0 1 1.0732 0.05542 3.3282 3.3282 0 0 1 0.85059 0.20361 0.38055 0.38055 0 0 1 0.25928 0.36988v3.6631q0 0.25927-0.29639 0.18506a3.9656 3.9656 0 0 0-0.55469-0.03711h-0.55469a2.5061 2.5061 0 0 0-1.166 0.259 1.5838 1.5838 0 0 0-0.73975 0.86963 4.5923 4.5923 0 0 0-0.24072 1.6465v0.999h3.1084c0.14746 0 0.24023 0.02466 0.27734 0.074a0.36848 0.36848 0 0 1 0.05567 0.22192v3.7371q0 0.25928-0.333 0.259h-3.1084v13.764a0.49676 0.49676 0 0 1-0.05518 0.22192c-0.03711 0.074-0.12939 0.11109-0.27783 0.11109h-4.5137c-0.19775 0-0.2959-0.11109-0.2959-0.333z" class="cls-2" transform="translate(-3.9998,-2)"/></g></svg>