<svg xmlns="http://www.w3.org/2000/svg" xmlns:xlink="http://www.w3.org/1999/xlink" width="32pt" height="32pt" version="1.1" viewBox="0 0 32 32"><g id="surface1"><path style="stroke:none;fill-rule:nonzero;fill:#a9b9cb;fill-opacity:1" d="M 26.378906 11.1875 C 26.378906 10.796875 26.296875 10.445312 26.125 10.152344 C 25.957031 9.855469 25.707031 9.613281 25.375 9.421875 C 22.609375 7.828125 19.847656 6.234375 17.082031 4.640625 C 16.339844 4.210938 15.617188 4.222656 14.875 4.660156 C 13.773438 5.304688 8.261719 8.46875 6.625 9.421875 C 5.945312 9.8125 5.621094 10.414062 5.621094 11.195312 C 5.621094 14.398438 5.621094 17.613281 5.621094 20.820312 C 5.621094 21.203125 5.703125 21.542969 5.863281 21.835938 C 6.027344 22.136719 6.285156 22.394531 6.625 22.59375 C 8.269531 23.546875 13.773438 26.699219 14.875 27.355469 C 15.617188 27.789062 16.332031 27.808594 17.082031 27.371094 C 19.847656 25.773438 22.609375 24.1875 25.375 22.59375 C 25.722656 22.394531 25.972656 22.144531 26.136719 21.835938 C 26.296875 21.542969 26.378906 21.203125 26.378906 20.820312 C 26.378906 20.8125 26.378906 14.394531 26.378906 11.1875"/><path style="stroke:none;fill-rule:nonzero;fill:#7f8b99;fill-opacity:1" d="M 17.0625 4.652344 C 16.320312 4.222656 15.597656 4.238281 14.859375 4.671875 C 13.761719 5.320312 8.261719 8.472656 6.625 9.421875 C 5.953125 9.8125 5.621094 10.40625 5.621094 11.1875 C 5.621094 14.386719 5.621094 17.585938 5.621094 20.789062 C 5.621094 21.171875 5.703125 21.511719 5.863281 21.804688 C 6.027344 22.105469 6.285156 22.355469 6.625 22.554688 C 7 22.769531 7.578125 23.105469 8.257812 23.496094 L 23.429688 8.320312 C 21.304688 7.105469 19.1875 5.882812 17.0625 4.652344"/><path style="stroke:none;fill-rule:nonzero;fill:#fff;fill-opacity:1" d="M 18.144531 14.535156 L 21.375 14.558594 C 21.375 13.214844 20.011719 9.914062 16.109375 9.914062 C 13.621094 9.914062 10.273438 11.496094 10.273438 16.042969 C 10.273438 20.59375 13.554688 22.078125 16.109375 22.078125 C 20.25 22.078125 21.234375 19.21875 21.234375 17.601562 L 18.152344 17.421875 C 18.152344 17.421875 18.234375 19.289062 16.089844 19.289062 C 14.113281 19.289062 13.777344 16.863281 13.777344 16.042969 C 13.777344 14.789062 14.226562 12.78125 16.089844 12.78125 C 17.953125 12.789062 18.144531 14.535156 18.144531 14.535156"/></g></svg>