<svg xmlns="http://www.w3.org/2000/svg" xmlns:xlink="http://www.w3.org/1999/xlink" width="32pt" height="32pt" version="1.1" viewBox="0 0 32 32"><g id="surface1"><path style="stroke:none;fill-rule:evenodd;fill:#1b1918;fill-opacity:1" d="M 8.570312 14.710938 C 8.359375 14.753906 8.203125 14.832031 8.101562 14.945312 C 7.996094 15.058594 7.988281 15.238281 8.078125 15.476562 C 8.210938 15.828125 8.316406 16.226562 8.394531 16.671875 C 8.472656 17.113281 8.507812 17.535156 8.507812 17.9375 L 8.65625 17.9375 C 8.753906 17.507812 8.8125 17.007812 8.824219 16.441406 C 8.835938 15.875 8.75 15.296875 8.570312 14.710938 Z M 16.011719 4.832031 C 22.167969 4.832031 27.191406 9.855469 27.191406 16.011719 C 27.191406 22.167969 22.167969 27.191406 16.011719 27.191406 C 9.855469 27.191406 4.832031 22.167969 4.832031 16.011719 C 4.832031 9.855469 9.855469 4.832031 16.011719 4.832031 Z M 16.011719 5.289062 C 19.636719 5.289062 22.847656 7.101562 24.792969 9.867188 L 24.449219 9.8125 L 23.730469 9.75 L 23.171875 9.828125 L 22.609375 10.085938 L 21.9375 10.566406 L 21.460938 10.949219 L 21.058594 11.460938 L 20.851562 11.941406 L 20.339844 12.242188 L 19.859375 12.417969 L 19.574219 12.59375 L 18.933594 13.15625 L 18.46875 13.746094 C 16.746094 17.144531 17.964844 12.40625 17.898438 10.722656 C 18.199219 9.359375 17.980469 9.492188 17.191406 8.292969 L 16.359375 7.605469 L 15.664062 7.449219 L 15.113281 7.582031 L 14.378906 7.753906 L 14.25 8.195312 L 13.679688 8.550781 L 12.738281 8.671875 L 12.273438 8.703125 L 11.671875 8.765625 L 11.246094 8.871094 L 10.558594 9.738281 L 10.765625 10.085938 L 10.972656 10.105469 L 10.917969 10.242188 L 11.226562 10.875 C 11.953125 10.859375 12.140625 10.839844 12.871094 10.824219 C 13.363281 10.953125 13.726562 11.527344 13.734375 11.902344 C 13.941406 12.195312 13.609375 12.945312 12.996094 13.980469 C 12.175781 15.371094 12.480469 16.722656 12.609375 17.855469 C 12.691406 18.289062 12.769531 18.449219 12.894531 18.792969 L 10.691406 18.792969 C 10.515625 18.617188 10.007812 18.222656 9 18.164062 C 8.972656 18.164062 8.945312 18.164062 8.921875 18.160156 C 8.902344 18.144531 8.882812 18.128906 8.867188 18.113281 C 8.867188 18.023438 8.878906 17.941406 8.902344 17.875 C 8.996094 17.371094 9.027344 16.832031 8.992188 16.261719 C 8.957031 15.6875 8.890625 15.160156 8.792969 14.683594 C 9.027344 14.734375 9.152344 14.804688 9.171875 14.894531 C 9.191406 14.984375 9.21875 15.125 9.253906 15.316406 C 9.410156 15.09375 9.5 14.910156 9.511719 14.765625 C 9.523438 14.621094 9.421875 14.515625 9.214844 14.445312 C 9.300781 14.28125 9.503906 14.222656 9.828125 14.277344 C 10.152344 14.328125 10.402344 14.554688 10.574219 14.957031 C 10.574219 14.820312 10.527344 14.632812 10.433594 14.398438 C 10.339844 14.160156 10.199219 14.042969 10.007812 14.042969 C 10.035156 14.042969 10.070312 14.03125 10.113281 14.011719 C 10.15625 13.992188 10.246094 13.984375 10.390625 13.992188 C 10.039062 13.71875 9.761719 13.652344 9.5625 13.789062 C 9.367188 13.925781 9.195312 13.992188 9.054688 13.992188 C 9.15625 13.609375 9.332031 13.390625 9.578125 13.335938 C 9.824219 13.277344 9.972656 13.410156 10.03125 13.730469 C 10.054688 13.675781 10.058594 13.582031 10.042969 13.449219 C 10.027344 13.316406 9.988281 13.210938 9.921875 13.136719 C 9.742188 12.953125 9.535156 12.964844 9.304688 13.175781 C 9.074219 13.390625 8.925781 13.570312 8.867188 13.71875 C 8.949219 13.390625 9.035156 13.167969 9.128906 13.050781 C 9.21875 12.933594 9.308594 12.867188 9.394531 12.855469 C 9.480469 12.839844 9.5625 12.851562 9.640625 12.886719 C 9.714844 12.925781 9.78125 12.933594 9.832031 12.917969 C 9.484375 12.753906 9.226562 12.695312 9.054688 12.730469 C 8.886719 12.765625 8.769531 12.839844 8.703125 12.957031 C 8.636719 13.070312 8.605469 13.191406 8.605469 13.320312 C 8.609375 13.453125 8.601562 13.53125 8.59375 13.554688 C 8.304688 13.296875 7.996094 13.175781 7.671875 13.191406 C 7.34375 13.203125 7.082031 13.503906 6.875 14.089844 C 7 13.976562 7.113281 13.828125 7.21875 13.640625 C 7.328125 13.453125 7.566406 13.472656 7.941406 13.707031 C 7.890625 13.734375 7.8125 13.78125 7.710938 13.84375 C 7.605469 13.914062 7.554688 14.070312 7.554688 14.324219 C 7.421875 14.28125 7.320312 14.289062 7.238281 14.34375 C 7.15625 14.398438 7.097656 14.457031 7.0625 14.523438 C 6.992188 14.488281 6.90625 14.449219 6.796875 14.417969 C 6.6875 14.382812 6.578125 14.402344 6.46875 14.472656 C 6.40625 14.53125 6.363281 14.617188 6.335938 14.738281 C 6.3125 14.859375 6.332031 14.953125 6.390625 15.019531 C 6.355469 15.09375 6.296875 15.160156 6.21875 15.21875 C 6.140625 15.28125 6.113281 15.441406 6.132812 15.699219 C 6.175781 15.605469 6.269531 15.480469 6.414062 15.316406 C 6.558594 15.152344 6.6875 15.070312 6.800781 15.070312 C 6.800781 15.160156 6.796875 15.269531 6.792969 15.386719 C 6.785156 15.503906 6.816406 15.613281 6.886719 15.710938 C 6.886719 15.59375 6.902344 15.484375 6.933594 15.378906 C 6.96875 15.273438 7.003906 15.171875 7.050781 15.078125 C 7.066406 15.078125 7.144531 15.09375 7.285156 15.117188 C 7.425781 15.144531 7.523438 15.199219 7.582031 15.277344 C 7.339844 15.316406 7.199219 15.421875 7.160156 15.59375 C 7.121094 15.761719 7.097656 15.902344 7.085938 16.007812 C 7.085938 16.039062 7.109375 16.019531 7.15625 15.949219 C 7.199219 15.878906 7.257812 15.800781 7.335938 15.722656 C 7.40625 15.640625 7.492188 15.578125 7.582031 15.535156 C 7.671875 15.492188 7.761719 15.515625 7.855469 15.601562 C 7.914062 15.660156 7.984375 15.800781 8.066406 16.023438 C 8.148438 16.242188 8.214844 16.492188 8.261719 16.765625 C 8.3125 17.039062 8.328125 17.308594 8.3125 17.578125 C 8.300781 17.824219 8.238281 18.019531 8.125 18.167969 C 7.011719 18.246094 6.648438 18.621094 6.597656 18.792969 L 5.65625 18.792969 C 5.414062 17.902344 5.289062 16.972656 5.289062 16.011719 C 5.289062 10.105469 10.105469 5.289062 16.011719 5.289062 Z M 25.992188 12.089844 C 26.039062 12.210938 26.082031 12.332031 26.125 12.457031 C 26.128906 12.476562 26.128906 12.496094 26.128906 12.515625 C 26.128906 12.609375 26.128906 12.867188 26.046875 12.914062 C 25.96875 12.960938 25.839844 13.265625 25.746094 13.265625 C 25.648438 13.265625 25.488281 13.378906 25.394531 13.523438 C 25.296875 13.667969 25.234375 14.019531 25.234375 14.019531 L 25.058594 14.304688 L 24.832031 14.371094 L 24.609375 14.898438 L 24.59375 15.503906 L 24.511719 18.144531 L 24.800781 17.855469 L 24.914062 17.246094 C 24.949219 17.277344 24.984375 17.328125 25.023438 17.382812 L 25.015625 17.457031 C 25.015625 17.457031 24.96875 18.382812 24.96875 18.480469 C 24.96875 18.574219 24.824219 19.054688 24.824219 19.054688 L 24.746094 19.503906 L 25.097656 19.503906 C 25.097656 19.503906 25.273438 19.28125 25.320312 19.167969 C 25.367188 19.054688 25.351562 18.496094 25.351562 18.496094 C 25.351562 18.496094 25.433594 17.921875 25.480469 17.605469 C 25.515625 17.59375 25.535156 17.582031 25.535156 17.582031 L 25.921875 18.015625 C 25.921875 18.015625 25.710938 18.367188 25.761719 18.496094 C 25.808594 18.621094 26.015625 18.988281 26.015625 18.988281 C 26.015625 18.988281 25.632812 19.199219 25.761719 19.324219 C 25.832031 19.398438 25.996094 19.496094 26.125 19.570312 C 25.855469 20.332031 25.503906 21.058594 25.074219 21.730469 L 23.261719 21.730469 C 23.273438 21.707031 23.28125 21.691406 23.28125 21.691406 L 23.441406 21.53125 C 23.441406 21.53125 23.746094 21.324219 23.921875 21.277344 C 24.097656 21.230469 24.371094 21.050781 24.371094 21.050781 L 24.722656 20.796875 L 24.722656 20.558594 L 25.039062 20.414062 L 25.136719 20.222656 L 24.769531 19.855469 C 24.769531 19.855469 24.6875 19.773438 24.546875 19.804688 C 24.402344 19.835938 24.015625 19.964844 24.015625 19.964844 L 23.824219 20.109375 L 23.523438 20.207031 L 23.058594 20.300781 L 22.851562 20.171875 L 22.453125 19.964844 L 22.132812 19.902344 L 22.019531 20.300781 L 22.097656 20.667969 L 22.148438 21.019531 L 21.972656 21.324219 L 21.765625 21.660156 L 21.8125 22.074219 L 21.796875 22.652344 L 21.699219 23.257812 L 21.652344 23.800781 L 21.605469 24.332031 L 21.605469 24.890625 L 21.59375 25.160156 C 21.253906 25.371094 20.902344 25.558594 20.539062 25.730469 L 18.691406 25.730469 C 18.652344 25.121094 18.609375 24.425781 18.601562 23.730469 L 19.699219 23.730469 L 19.992188 25.398438 L 20.546875 25.570312 L 21.109375 24.121094 L 21.316406 22.445312 L 21.027344 22.234375 L 21.203125 21.582031 L 20.996094 21.085938 L 20.660156 20.941406 L 20.726562 20.636719 L 20.515625 20.714844 L 20.546875 20.207031 L 20.324219 20.460938 L 20.132812 20.125 L 19.894531 19.996094 L 19.941406 19.199219 C 19.855469 18.847656 19.769531 18.496094 19.683594 18.144531 C 19.605469 18.125 19.523438 18.109375 19.445312 18.09375 L 19.332031 18.6875 L 19.191406 18.910156 L 18.871094 18.367188 L 18.550781 18.351562 L 19.074219 19.117188 L 18.742188 20.140625 L 18.5625 20.234375 L 17.734375 20.027344 L 17.613281 20.4375 L 17.246094 20.183594 L 16.957031 19.738281 L 16.8125 19.964844 L 16.363281 19.964844 L 16.222656 20.332031 L 15.746094 20.105469 L 15.359375 20.054688 C 14.71875 19.941406 13.5 19.167969 13.285156 18.492188 C 13.253906 18.394531 13.226562 18.222656 13.199219 18.054688 C 13.175781 17.925781 13.15625 17.804688 13.136719 17.722656 C 12.945312 16.9375 12.859375 16.296875 13.085938 15.324219 C 13.539062 13.601562 14.1875 12.761719 14.324219 12.117188 C 14.347656 11.996094 15.289062 11.539062 15.273438 11.429688 C 14.992188 11.480469 14.597656 11.726562 14.3125 11.636719 L 15.164062 11.101562 C 14.710938 11.210938 14.75 11.269531 14.296875 11.234375 L 15.453125 10.683594 L 13.867188 10.921875 C 13.867188 10.90625 13.492188 10.691406 12.710938 10.515625 L 11.464844 10.605469 L 11.367188 10.125 L 11.796875 9.910156 L 11.230469 9.921875 L 11.015625 9.59375 L 11.371094 9.152344 L 12.3125 9.007812 L 13.625 8.980469 L 13.898438 9.175781 C 14.277344 9.03125 14.449219 9.179688 14.640625 9.417969 C 14.691406 9.679688 14.300781 9.152344 14.113281 9.367188 L 14.167969 9.792969 C 14.667969 9.746094 15.148438 9.839844 15.363281 9.480469 C 15.507812 9.105469 15.355469 8.792969 14.902344 8.535156 L 14.773438 8.855469 L 14.355469 8.988281 L 14.238281 8.621094 L 15.097656 8.082031 L 15.640625 8.03125 L 16.328125 8.21875 L 16.921875 8.777344 C 17.167969 8.996094 15.851562 9.324219 17.140625 10.019531 L 16.226562 10.511719 C 16.085938 10.589844 17.304688 10.414062 17.074219 11.191406 C 17.246094 11.574219 16.484375 11.234375 15.539062 12.203125 C 15.859375 12.640625 16.71875 11.796875 15.636719 12.761719 L 17.121094 12.234375 L 17.125 12.433594 C 16.835938 12.511719 16.089844 12.828125 15.519531 12.980469 C 15.988281 13.109375 16.78125 12.976562 17.117188 12.734375 L 17.074219 13.558594 L 16.625 14.074219 L 16.195312 14.1875 L 16.433594 14.570312 L 16.355469 14.890625 L 15.988281 15.113281 L 16.523438 15.164062 L 16.273438 15.425781 L 15.507812 15.605469 L 16.34375 15.585938 C 16.652344 15.875 15.957031 15.910156 15.460938 16.023438 C 16.039062 16.089844 16.546875 16.128906 16.566406 15.972656 L 16.621094 16.0625 C 16.992188 16.53125 16.101562 16.386719 15.625 16.53125 C 16.339844 16.675781 16.863281 16.699219 16.953125 16.472656 C 17.097656 16.730469 17.09375 16.6875 17.101562 16.738281 C 17.128906 16.894531 16.425781 17.121094 15.90625 17.40625 C 15.707031 17.511719 17.222656 17.4375 17.601562 16.859375 C 17.695312 16.714844 16.78125 17.621094 17.851562 16.945312 C 17.933594 16.890625 17.921875 17.109375 18 16.992188 C 18.058594 17.046875 17.964844 17.242188 18.023438 16.878906 C 18.128906 17.695312 18.449219 17.863281 18.871094 17.742188 C 18.933594 17.679688 18.996094 17.617188 19.0625 17.550781 C 18.859375 17.15625 18.65625 16.761719 18.453125 16.367188 C 18.707031 16.667969 18.898438 16.839844 18.628906 16.097656 C 18.878906 16.304688 19.128906 16.511719 19.382812 16.71875 C 19.445312 16.667969 19.507812 16.613281 19.574219 16.558594 C 19.375 16.273438 19.175781 15.988281 18.976562 15.699219 C 18.945312 15.40625 19.046875 15.265625 19.273438 15.28125 C 19.414062 15.347656 19.550781 15.417969 19.691406 15.484375 C 19.75 15.488281 19.8125 15.492188 19.871094 15.496094 C 19.679688 15.289062 19.21875 14.820312 19.34375 14.242188 L 20.527344 13.074219 L 21.234375 13.617188 L 21.332031 13.683594 L 21.445312 13.9375 L 21.699219 14.179688 L 22.003906 14.515625 L 23.042969 14.769531 L 23.1875 14.785156 L 23.074219 14.449219 L 23.21875 14.144531 L 23.570312 13.921875 C 23.570312 13.921875 23.121094 13.921875 23.042969 13.9375 C 22.960938 13.953125 22.210938 13.96875 22.210938 13.96875 L 21.859375 13.953125 L 21.699219 13.714844 L 21.9375 13.808594 L 22.195312 13.808594 L 22.308594 13.667969 L 22.324219 13.378906 L 22.035156 13.171875 L 22.164062 13.136719 L 22.515625 13.394531 L 22.644531 13.25 L 22.515625 13.074219 L 22.164062 12.609375 L 21.828125 11.84375 L 21.8125 11.761719 L 22.5 11.378906 L 22.804688 11.140625 L 23.203125 11.042969 L 23.554688 10.773438 L 23.792969 10.757812 L 24.113281 11.074219 L 24.546875 11.460938 L 24.832031 11.828125 L 25.136719 12.195312 L 25.359375 12.449219 L 25.472656 12.097656 L 25.664062 12.210938 L 25.746094 11.90625 L 25.9375 12.179688 Z M 24.972656 21.886719 C 24.574219 22.496094 24.113281 23.058594 23.605469 23.570312 L 22.128906 23.570312 L 22.179688 23.417969 L 22.324219 22.796875 L 22.308594 22.316406 L 22.515625 22.074219 L 22.851562 21.898438 C 22.851562 21.898438 22.996094 21.933594 23.074219 21.933594 C 23.097656 21.933594 23.121094 21.914062 23.148438 21.886719 Z M 23.445312 23.730469 C 22.953125 24.199219 22.421875 24.625 21.851562 24.996094 L 21.972656 24.042969 L 22.074219 23.730469 Z M 20.1875 25.886719 C 18.902344 26.433594 17.492188 26.734375 16.011719 26.734375 C 14.53125 26.734375 13.121094 26.433594 11.835938 25.886719 L 17.25 25.886719 L 17.589844 26.410156 L 18.722656 26.171875 C 18.714844 26.078125 18.707031 25.984375 18.703125 25.886719 Z M 11.484375 25.730469 C 10.40625 25.226562 9.425781 24.546875 8.578125 23.730469 L 16.671875 23.730469 C 16.660156 24.070312 16.609375 24.421875 16.519531 24.777344 L 17.144531 25.730469 Z M 8.417969 23.570312 C 7.90625 23.058594 7.449219 22.496094 7.050781 21.886719 L 16.289062 21.886719 C 16.539062 22.425781 16.664062 22.984375 16.671875 23.570312 Z M 6.949219 21.730469 C 6.773438 21.457031 6.609375 21.171875 6.460938 20.878906 L 15.289062 20.878906 C 15.710938 21.179688 16.015625 21.464844 16.195312 21.730469 Z M 6.382812 20.722656 C 6.265625 20.484375 6.15625 20.238281 6.054688 19.988281 L 13.558594 19.988281 C 13.578125 20.007812 13.59375 20.027344 13.609375 20.046875 C 14.0625 20.28125 14.726562 20.507812 15.054688 20.722656 Z M 5.992188 19.832031 C 5.945312 19.703125 5.894531 19.574219 5.851562 19.441406 L 13.183594 19.441406 C 13.261719 19.582031 13.34375 19.710938 13.433594 19.832031 Z M 5.800781 19.285156 C 5.78125 19.222656 5.761719 19.160156 5.742188 19.097656 L 13.015625 19.097656 C 13.042969 19.160156 13.070312 19.222656 13.101562 19.285156 Z M 16.011719 0 C 24.832031 0 32.023438 7.191406 32.023438 16.011719 C 32.023438 24.832031 24.832031 32.023438 16.011719 32.023438 C 7.191406 32.023438 0 24.832031 0 16.011719 C 0 7.191406 7.191406 0 16.011719 0 Z M 16.011719 1.085938 C 24.230469 1.085938 30.9375 7.792969 30.9375 16.011719 C 30.9375 24.230469 24.230469 30.9375 16.011719 30.9375 C 7.792969 30.9375 1.085938 24.230469 1.085938 16.011719 C 1.085938 7.792969 7.792969 1.085938 16.011719 1.085938 Z M 7.902344 14.273438 C 7.929688 14.273438 7.972656 14.253906 8.042969 14.207031 C 8.109375 14.164062 8.199219 14.164062 8.3125 14.214844 C 8.300781 14.054688 8.230469 13.960938 8.101562 13.9375 C 7.972656 13.910156 7.90625 14.023438 7.902344 14.273438 Z M 6.925781 14.71875 C 6.886719 14.679688 6.824219 14.65625 6.742188 14.652344 C 6.660156 14.648438 6.597656 14.660156 6.554688 14.683594 C 6.535156 14.71875 6.515625 14.761719 6.5 14.824219 C 6.480469 14.886719 6.476562 14.933594 6.492188 14.96875 C 6.535156 14.902344 6.59375 14.871094 6.667969 14.871094 C 6.746094 14.871094 6.804688 14.875 6.851562 14.882812 C 6.863281 14.859375 6.875 14.828125 6.882812 14.792969 C 6.894531 14.757812 6.90625 14.734375 6.925781 14.71875 Z M 7.332031 14.660156 C 7.371094 14.671875 7.425781 14.703125 7.496094 14.746094 C 7.570312 14.789062 7.628906 14.839844 7.679688 14.894531 C 7.667969 14.867188 7.644531 14.796875 7.609375 14.699219 C 7.574219 14.597656 7.550781 14.53125 7.53125 14.496094 C 7.503906 14.496094 7.46875 14.515625 7.421875 14.546875 C 7.375 14.582031 7.34375 14.617188 7.332031 14.660156 Z M 7.925781 14.585938 C 7.914062 14.609375 7.910156 14.695312 7.914062 14.839844 C 7.914062 14.980469 7.933594 15.058594 7.964844 15.078125 C 7.976562 14.980469 8.003906 14.847656 8.046875 14.679688 C 8.085938 14.507812 8.167969 14.425781 8.285156 14.425781 C 8.171875 14.4375 8.097656 14.453125 8.0625 14.472656 C 8.027344 14.492188 7.984375 14.53125 7.925781 14.585938 Z M 19.667969 23.570312 L 19.371094 21.886719 L 18.699219 21.886719 C 18.625 22.410156 18.597656 22.988281 18.601562 23.570312 Z M 19.34375 21.730469 L 19.332031 21.671875 L 19.113281 21.730469 Z M 5.855469 26.460938 L 5.722656 25.183594 L 4.496094 24.867188 L 5.632812 24.371094 L 5.527344 23.214844 L 6.3125 24.074219 L 7.472656 23.566406 L 6.875 24.679688 L 7.683594 25.632812 L 6.46875 25.371094 Z M 26.023438 26.59375 L 25.40625 25.445312 L 24.136719 25.621094 L 25.011719 24.714844 L 24.46875 23.671875 L 25.535156 24.175781 L 26.433594 23.253906 L 26.296875 24.53125 L 27.421875 25.113281 L 26.179688 25.332031 Z M 18.464844 29.886719 L 18.046875 27.832031 L 18.484375 27.75 L 18.832031 29.457031 L 19.925781 29.253906 L 20 29.605469 Z M 16.21875 30.066406 L 16.105469 27.960938 L 17.046875 27.914062 C 17.28125 27.902344 17.457031 27.910156 17.566406 27.945312 C 17.675781 27.976562 17.765625 28.039062 17.835938 28.132812 C 17.90625 28.226562 17.941406 28.335938 17.949219 28.460938 C 17.957031 28.617188 17.917969 28.75 17.824219 28.859375 C 17.734375 28.964844 17.589844 29.039062 17.398438 29.074219 C 17.496094 29.125 17.578125 29.179688 17.648438 29.238281 C 17.710938 29.300781 17.804688 29.410156 17.917969 29.570312 L 18.214844 29.96875 L 17.679688 29.992188 L 17.328125 29.550781 C 17.203125 29.394531 17.121094 29.292969 17.078125 29.253906 C 17.03125 29.214844 16.984375 29.1875 16.9375 29.171875 C 16.886719 29.160156 16.8125 29.15625 16.710938 29.160156 L 16.621094 29.164062 L 16.667969 30.042969 Z M 16.601562 28.828125 L 16.933594 28.8125 C 17.148438 28.800781 17.28125 28.785156 17.332031 28.765625 C 17.386719 28.746094 17.425781 28.714844 17.453125 28.671875 C 17.480469 28.625 17.492188 28.574219 17.488281 28.511719 C 17.484375 28.4375 17.464844 28.382812 17.421875 28.339844 C 17.378906 28.300781 17.320312 28.273438 17.246094 28.265625 C 17.210938 28.265625 17.101562 28.265625 16.921875 28.277344 L 16.570312 28.292969 Z M 14.152344 29.945312 L 14.304688 27.839844 L 15.945312 27.949219 L 15.921875 28.304688 L 14.726562 28.226562 L 14.691406 28.691406 L 15.804688 28.765625 L 15.777344 29.121094 L 14.667969 29.046875 L 14.625 29.621094 L 15.859375 29.703125 L 15.835938 30.058594 Z M 12.140625 29.507812 L 12.640625 27.453125 L 13.339844 27.605469 C 13.605469 27.664062 13.777344 27.710938 13.851562 27.75 C 13.96875 27.808594 14.054688 27.898438 14.113281 28.019531 C 14.171875 28.140625 14.183594 28.285156 14.140625 28.445312 C 14.113281 28.574219 14.0625 28.675781 13.992188 28.75 C 13.921875 28.824219 13.847656 28.878906 13.757812 28.910156 C 13.671875 28.945312 13.589844 28.960938 13.511719 28.960938 C 13.402344 28.957031 13.246094 28.933594 13.050781 28.890625 L 12.765625 28.828125 L 12.578125 29.601562 Z M 12.992188 27.894531 L 12.851562 28.476562 L 13.089844 28.53125 C 13.261719 28.570312 13.378906 28.582031 13.441406 28.574219 C 13.503906 28.566406 13.558594 28.542969 13.601562 28.503906 C 13.648438 28.464844 13.675781 28.414062 13.691406 28.355469 C 13.707031 28.28125 13.699219 28.210938 13.667969 28.152344 C 13.632812 28.09375 13.582031 28.050781 13.511719 28.023438 C 13.464844 28.003906 13.359375 27.976562 13.203125 27.941406 Z M 27.875 17.609375 L 29.957031 17.9375 L 29.730469 19.367188 L 29.378906 19.3125 L 29.539062 18.304688 L 29.046875 18.226562 L 28.910156 19.09375 L 28.554688 19.039062 L 28.695312 18.171875 L 27.808594 18.03125 Z M 29.015625 15.222656 C 29.230469 15.222656 29.410156 15.253906 29.558594 15.320312 C 29.664062 15.367188 29.761719 15.433594 29.847656 15.515625 C 29.929688 15.597656 29.996094 15.691406 30.035156 15.789062 C 30.089844 15.921875 30.121094 16.070312 30.121094 16.242188 C 30.121094 16.554688 30.023438 16.804688 29.828125 16.988281 C 29.636719 17.175781 29.371094 17.269531 29.027344 17.269531 C 28.683594 17.269531 28.417969 17.175781 28.226562 16.992188 C 28.035156 16.804688 27.9375 16.558594 27.9375 16.25 C 27.9375 15.9375 28.035156 15.6875 28.226562 15.5 C 28.417969 15.316406 28.679688 15.222656 29.015625 15.222656 Z M 29.03125 15.664062 C 28.792969 15.664062 28.609375 15.71875 28.488281 15.828125 C 28.363281 15.9375 28.300781 16.078125 28.300781 16.246094 C 28.300781 16.417969 28.363281 16.558594 28.484375 16.667969 C 28.609375 16.773438 28.792969 16.828125 29.035156 16.828125 C 29.277344 16.828125 29.457031 16.777344 29.578125 16.671875 C 29.695312 16.5625 29.753906 16.421875 29.753906 16.246094 C 29.753906 16.074219 29.695312 15.929688 29.574219 15.824219 C 29.453125 15.714844 29.273438 15.664062 29.03125 15.664062 Z M 28.515625 13.539062 L 28.488281 13.96875 C 28.25 13.964844 28.058594 13.902344 27.914062 13.789062 C 27.769531 13.671875 27.671875 13.503906 27.617188 13.285156 C 27.546875 13.011719 27.585938 12.765625 27.726562 12.542969 C 27.867188 12.324219 28.101562 12.171875 28.421875 12.09375 C 28.765625 12.007812 29.050781 12.027344 29.285156 12.15625 C 29.515625 12.285156 29.667969 12.496094 29.738281 12.78125 C 29.800781 13.03125 29.777344 13.253906 29.667969 13.445312 C 29.605469 13.5625 29.496094 13.664062 29.34375 13.75 L 29.144531 13.367188 C 29.246094 13.316406 29.316406 13.242188 29.359375 13.152344 C 29.398438 13.058594 29.40625 12.957031 29.378906 12.847656 C 29.34375 12.695312 29.257812 12.585938 29.125 12.519531 C 28.992188 12.453125 28.804688 12.449219 28.5625 12.511719 C 28.300781 12.574219 28.128906 12.667969 28.042969 12.789062 C 27.957031 12.90625 27.929688 13.042969 27.96875 13.191406 C 27.996094 13.300781 28.054688 13.386719 28.144531 13.449219 C 28.234375 13.511719 28.355469 13.539062 28.515625 13.539062 Z M 27.113281 11.65625 L 29.058594 10.832031 L 29.222656 11.222656 L 27.28125 12.046875 Z M 26.34375 10.050781 L 28.191406 9.066406 L 28.390625 9.441406 L 26.859375 10.257812 L 27.355469 11.191406 L 27.039062 11.359375 Z M 26.875 7.078125 L 27.359375 7.769531 C 27.457031 7.90625 27.519531 8.011719 27.554688 8.085938 C 27.59375 8.160156 27.609375 8.238281 27.613281 8.316406 C 27.613281 8.394531 27.59375 8.472656 27.558594 8.550781 C 27.523438 8.628906 27.46875 8.691406 27.394531 8.746094 C 27.3125 8.800781 27.222656 8.832031 27.125 8.835938 C 27.027344 8.839844 26.9375 8.816406 26.851562 8.765625 C 26.894531 8.890625 26.898438 9.007812 26.863281 9.117188 C 26.828125 9.226562 26.761719 9.3125 26.660156 9.382812 C 26.582031 9.4375 26.492188 9.472656 26.394531 9.488281 C 26.292969 9.503906 26.199219 9.496094 26.113281 9.464844 C 26.023438 9.433594 25.941406 9.375 25.867188 9.289062 C 25.820312 9.234375 25.714844 9.097656 25.558594 8.875 L 25.148438 8.285156 Z M 26.832031 7.628906 L 26.433594 7.90625 L 26.59375 8.136719 C 26.6875 8.273438 26.75 8.355469 26.777344 8.386719 C 26.824219 8.441406 26.878906 8.472656 26.9375 8.484375 C 26.996094 8.492188 27.050781 8.480469 27.109375 8.4375 C 27.160156 8.402344 27.195312 8.355469 27.207031 8.304688 C 27.21875 8.25 27.210938 8.191406 27.175781 8.128906 C 27.15625 8.09375 27.085938 7.992188 26.972656 7.828125 Z M 26.144531 8.109375 L 25.683594 8.433594 L 25.910156 8.753906 C 25.996094 8.878906 26.054688 8.957031 26.085938 8.988281 C 26.132812 9.03125 26.1875 9.058594 26.246094 9.066406 C 26.304688 9.074219 26.363281 9.054688 26.425781 9.011719 C 26.476562 8.976562 26.511719 8.933594 26.53125 8.882812 C 26.550781 8.832031 26.550781 8.777344 26.535156 8.71875 C 26.515625 8.65625 26.453125 8.550781 26.34375 8.390625 Z M 25.050781 5.265625 L 25.359375 5.558594 L 24.582031 6.394531 C 24.457031 6.527344 24.382812 6.617188 24.351562 6.664062 C 24.308594 6.738281 24.292969 6.820312 24.304688 6.902344 C 24.320312 6.988281 24.371094 7.070312 24.457031 7.152344 C 24.546875 7.234375 24.628906 7.277344 24.707031 7.285156 C 24.789062 7.292969 24.855469 7.273438 24.914062 7.226562 C 24.972656 7.183594 25.058594 7.101562 25.171875 6.976562 L 25.96875 6.125 L 26.28125 6.414062 L 25.523438 7.226562 C 25.351562 7.410156 25.21875 7.535156 25.132812 7.59375 C 25.042969 7.65625 24.953125 7.691406 24.859375 7.699219 C 24.765625 7.710938 24.664062 7.695312 24.558594 7.65625 C 24.453125 7.617188 24.339844 7.542969 24.21875 7.425781 C 24.074219 7.289062 23.976562 7.167969 23.933594 7.0625 C 23.886719 6.957031 23.867188 6.859375 23.875 6.761719 C 23.882812 6.667969 23.90625 6.582031 23.945312 6.511719 C 24.007812 6.402344 24.121094 6.261719 24.28125 6.089844 Z M 21.992188 5.691406 L 23.144531 3.921875 L 23.714844 4.296875 C 23.933594 4.4375 24.070312 4.539062 24.125 4.597656 C 24.207031 4.691406 24.253906 4.804688 24.265625 4.9375 C 24.277344 5.070312 24.238281 5.207031 24.144531 5.347656 C 24.074219 5.457031 23.996094 5.535156 23.90625 5.582031 C 23.820312 5.632812 23.734375 5.65625 23.644531 5.660156 C 23.554688 5.664062 23.476562 5.652344 23.40625 5.625 C 23.308594 5.585938 23.179688 5.511719 23.015625 5.410156 L 22.785156 5.257812 L 22.351562 5.925781 Z M 23.304688 4.453125 L 22.980469 4.957031 L 23.175781 5.082031 C 23.316406 5.175781 23.417969 5.226562 23.476562 5.238281 C 23.535156 5.25 23.589844 5.246094 23.644531 5.226562 C 23.695312 5.203125 23.738281 5.164062 23.773438 5.113281 C 23.816406 5.050781 23.832031 4.984375 23.820312 4.917969 C 23.808594 4.851562 23.777344 4.792969 23.726562 4.746094 C 23.691406 4.710938 23.605469 4.652344 23.480469 4.566406 Z M 20.222656 4.835938 L 21.078125 2.910156 L 22.507812 3.546875 L 22.363281 3.871094 L 21.324219 3.410156 L 21.132812 3.835938 L 22.101562 4.269531 L 21.957031 4.59375 L 20.988281 4.160156 L 20.753906 4.6875 L 21.832031 5.164062 L 21.6875 5.488281 Z M 18.164062 4.222656 L 18.746094 2.191406 L 19.605469 2.441406 C 19.824219 2.5 19.976562 2.566406 20.0625 2.628906 C 20.152344 2.695312 20.210938 2.78125 20.242188 2.890625 C 20.277344 3.003906 20.273438 3.117188 20.242188 3.238281 C 20.195312 3.386719 20.117188 3.5 20 3.574219 C 19.882812 3.648438 19.730469 3.671875 19.542969 3.648438 C 19.617188 3.726562 19.675781 3.800781 19.714844 3.882812 C 19.753906 3.960938 19.800781 4.089844 19.851562 4.277344 L 19.988281 4.742188 L 19.496094 4.601562 L 19.328125 4.078125 C 19.269531 3.886719 19.222656 3.769531 19.195312 3.71875 C 19.171875 3.664062 19.136719 3.625 19.097656 3.597656 C 19.058594 3.570312 18.992188 3.542969 18.898438 3.515625 L 18.816406 3.492188 L 18.574219 4.339844 Z M 18.910156 3.167969 L 19.210938 3.253906 C 19.40625 3.308594 19.53125 3.335938 19.585938 3.335938 C 19.640625 3.332031 19.6875 3.316406 19.726562 3.28125 C 19.765625 3.25 19.792969 3.203125 19.8125 3.140625 C 19.832031 3.074219 19.828125 3.015625 19.804688 2.960938 C 19.78125 2.910156 19.734375 2.867188 19.671875 2.835938 C 19.640625 2.824219 19.542969 2.792969 19.375 2.746094 L 19.054688 2.652344 Z M 16.039062 3.328125 L 16.039062 2.972656 L 16.957031 2.972656 L 16.957031 3.8125 C 16.867188 3.898438 16.738281 3.972656 16.570312 4.039062 C 16.402344 4.105469 16.230469 4.136719 16.054688 4.136719 C 15.835938 4.136719 15.644531 4.09375 15.476562 4 C 15.3125 3.90625 15.191406 3.773438 15.109375 3.601562 C 15.027344 3.429688 14.984375 3.242188 14.984375 3.039062 C 14.984375 2.820312 15.03125 2.625 15.121094 2.453125 C 15.214844 2.285156 15.347656 2.152344 15.527344 2.0625 C 15.664062 1.992188 15.832031 1.957031 16.03125 1.957031 C 16.292969 1.957031 16.5 2.011719 16.644531 2.121094 C 16.792969 2.230469 16.886719 2.382812 16.929688 2.578125 L 16.507812 2.65625 C 16.476562 2.550781 16.421875 2.46875 16.339844 2.410156 C 16.257812 2.351562 16.15625 2.320312 16.03125 2.320312 C 15.847656 2.320312 15.699219 2.378906 15.589844 2.496094 C 15.476562 2.617188 15.421875 2.789062 15.421875 3.023438 C 15.421875 3.273438 15.480469 3.460938 15.589844 3.585938 C 15.703125 3.710938 15.847656 3.773438 16.027344 3.773438 C 16.117188 3.773438 16.207031 3.757812 16.296875 3.722656 C 16.386719 3.6875 16.464844 3.644531 16.527344 3.59375 L 16.527344 3.328125 Z M 12.960938 4.421875 L 12.632812 2.339844 L 13.039062 2.273438 L 14.113281 3.53125 L 13.894531 2.136719 L 14.285156 2.074219 L 14.613281 4.160156 L 14.191406 4.226562 L 13.136719 3 L 13.351562 4.359375 Z M 12.175781 4.722656 L 11.5625 2.703125 L 11.96875 2.578125 L 12.585938 4.597656 Z M 9.925781 5.667969 L 9.070312 3.738281 L 9.652344 3.480469 L 10.585938 4.640625 L 10.347656 3.171875 L 10.929688 2.910156 L 11.789062 4.839844 L 11.425781 5 L 10.75 3.484375 L 11.042969 5.167969 L 10.667969 5.335938 L 9.613281 3.988281 L 10.289062 5.507812 Z M 7.945312 7.15625 L 6.648438 5.492188 L 7.148438 5.101562 L 8.335938 6 L 7.75 4.632812 L 8.253906 4.238281 L 9.550781 5.902344 L 9.242188 6.144531 L 8.21875 4.835938 L 8.910156 6.402344 L 8.585938 6.65625 L 7.234375 5.605469 L 8.257812 6.914062 Z M 7.75 7.277344 L 7.445312 7.628906 L 6.964844 7.453125 L 6.410156 8.089844 L 6.65625 8.535156 L 6.363281 8.875 L 5.308594 6.871094 L 5.605469 6.53125 Z M 6.605469 7.324219 L 5.824219 7.03125 L 6.226562 7.757812 Z M 5.304688 10.472656 L 3.597656 9.230469 L 4.125 8.503906 C 4.257812 8.324219 4.367188 8.203125 4.457031 8.140625 C 4.550781 8.082031 4.652344 8.054688 4.765625 8.0625 C 4.882812 8.070312 4.988281 8.109375 5.089844 8.183594 C 5.21875 8.273438 5.296875 8.390625 5.324219 8.527344 C 5.351562 8.660156 5.324219 8.8125 5.238281 8.976562 C 5.335938 8.933594 5.425781 8.90625 5.515625 8.898438 C 5.601562 8.886719 5.742188 8.886719 5.933594 8.902344 L 6.417969 8.9375 L 6.117188 9.347656 L 5.566406 9.328125 C 5.371094 9.320312 5.242188 9.320312 5.183594 9.328125 C 5.125 9.335938 5.078125 9.351562 5.039062 9.378906 C 4.996094 9.40625 4.949219 9.457031 4.890625 9.539062 L 4.839844 9.609375 L 5.554688 10.125 Z M 4.570312 9.410156 L 4.753906 9.15625 C 4.875 8.988281 4.941406 8.882812 4.957031 8.832031 C 4.972656 8.78125 4.972656 8.730469 4.957031 8.679688 C 4.9375 8.632812 4.90625 8.589844 4.855469 8.554688 C 4.796875 8.511719 4.738281 8.492188 4.679688 8.5 C 4.625 8.503906 4.570312 8.53125 4.519531 8.578125 C 4.496094 8.605469 4.433594 8.6875 4.332031 8.828125 L 4.136719 9.09375 Z M 4.109375 11.421875 L 3.785156 11.28125 L 4.140625 10.4375 L 4.914062 10.765625 C 4.960938 10.882812 4.980469 11.03125 4.972656 11.210938 C 4.96875 11.394531 4.933594 11.566406 4.863281 11.722656 C 4.777344 11.925781 4.660156 12.085938 4.511719 12.203125 C 4.359375 12.316406 4.191406 12.378906 4 12.386719 C 3.808594 12.394531 3.621094 12.359375 3.433594 12.28125 C 3.234375 12.195312 3.070312 12.078125 2.949219 11.925781 C 2.828125 11.773438 2.761719 11.597656 2.746094 11.398438 C 2.734375 11.246094 2.769531 11.078125 2.847656 10.894531 C 2.949219 10.652344 3.078125 10.484375 3.238281 10.394531 C 3.398438 10.300781 3.574219 10.273438 3.769531 10.308594 L 3.675781 10.730469 C 3.570312 10.71875 3.472656 10.738281 3.382812 10.789062 C 3.296875 10.839844 3.230469 10.921875 3.183594 11.035156 C 3.109375 11.207031 3.105469 11.367188 3.171875 11.511719 C 3.238281 11.660156 3.378906 11.78125 3.589844 11.871094 C 3.820312 11.96875 4.015625 11.992188 4.175781 11.9375 C 4.332031 11.882812 4.449219 11.773438 4.519531 11.609375 C 4.554688 11.523438 4.570312 11.4375 4.574219 11.339844 C 4.578125 11.242188 4.566406 11.15625 4.546875 11.078125 L 4.300781 10.972656 Z M 2.976562 14.789062 C 2.765625 14.75 2.59375 14.6875 2.460938 14.597656 C 2.363281 14.53125 2.28125 14.453125 2.210938 14.355469 C 2.140625 14.257812 2.09375 14.160156 2.070312 14.054688 C 2.039062 13.914062 2.035156 13.761719 2.066406 13.589844 C 2.121094 13.285156 2.257812 13.058594 2.480469 12.90625 C 2.703125 12.757812 2.984375 12.710938 3.320312 12.769531 C 3.65625 12.832031 3.902344 12.96875 4.0625 13.183594 C 4.21875 13.398438 4.269531 13.660156 4.214844 13.964844 C 4.160156 14.273438 4.023438 14.503906 3.804688 14.652344 C 3.582031 14.800781 3.308594 14.847656 2.976562 14.789062 Z M 3.039062 14.355469 C 3.273438 14.394531 3.460938 14.371094 3.601562 14.285156 C 3.742188 14.199219 3.828125 14.070312 3.855469 13.902344 C 3.886719 13.738281 3.851562 13.589844 3.75 13.460938 C 3.648438 13.332031 3.476562 13.246094 3.234375 13.203125 C 2.996094 13.160156 2.8125 13.183594 2.675781 13.265625 C 2.539062 13.347656 2.457031 13.476562 2.425781 13.652344 C 2.394531 13.824219 2.429688 13.972656 2.53125 14.101562 C 2.628906 14.226562 2.800781 14.3125 3.039062 14.355469 Z M 4.027344 17 L 1.921875 17.039062 L 1.90625 16.140625 C 1.902344 15.917969 1.917969 15.753906 1.953125 15.648438 C 1.988281 15.546875 2.054688 15.464844 2.148438 15.402344 C 2.246094 15.335938 2.355469 15.304688 2.480469 15.304688 C 2.640625 15.300781 2.769531 15.34375 2.875 15.4375 C 2.980469 15.527344 3.046875 15.664062 3.078125 15.851562 C 3.128906 15.757812 3.1875 15.679688 3.25 15.617188 C 3.316406 15.558594 3.425781 15.476562 3.589844 15.371094 L 3.996094 15.105469 L 4.003906 15.613281 L 3.550781 15.929688 C 3.390625 16.042969 3.289062 16.117188 3.246094 16.160156 C 3.203125 16.203125 3.175781 16.246094 3.160156 16.289062 C 3.144531 16.335938 3.136719 16.40625 3.140625 16.503906 L 3.140625 16.589844 L 4.023438 16.574219 Z M 2.804688 16.597656 L 2.800781 16.28125 C 2.796875 16.078125 2.785156 15.949219 2.765625 15.898438 C 2.75 15.847656 2.71875 15.808594 2.675781 15.78125 C 2.632812 15.753906 2.578125 15.738281 2.515625 15.742188 C 2.445312 15.742188 2.390625 15.761719 2.34375 15.800781 C 2.300781 15.839844 2.277344 15.894531 2.265625 15.964844 C 2.261719 15.996094 2.261719 16.101562 2.265625 16.273438 L 2.269531 16.605469 Z M 4.328125 18.949219 L 2.25 19.316406 L 2.132812 18.644531 C 2.085938 18.390625 2.070312 18.222656 2.078125 18.140625 C 2.085938 18.015625 2.136719 17.902344 2.226562 17.804688 C 2.316406 17.707031 2.445312 17.644531 2.609375 17.613281 C 2.738281 17.589844 2.847656 17.59375 2.945312 17.625 C 3.039062 17.65625 3.117188 17.703125 3.179688 17.765625 C 3.242188 17.828125 3.289062 17.894531 3.316406 17.964844 C 3.355469 18.0625 3.390625 18.207031 3.421875 18.398438 L 3.472656 18.667969 L 4.253906 18.53125 Z M 2.527344 18.835938 L 3.117188 18.730469 L 3.078125 18.503906 C 3.046875 18.335938 3.019531 18.230469 2.988281 18.175781 C 2.957031 18.125 2.914062 18.085938 2.863281 18.0625 C 2.808594 18.039062 2.753906 18.035156 2.691406 18.042969 C 2.617188 18.058594 2.558594 18.089844 2.515625 18.144531 C 2.476562 18.199219 2.453125 18.257812 2.453125 18.328125 C 2.453125 18.382812 2.464844 18.480469 2.492188 18.632812 Z M 24.183594 17.082031 L 24.3125 17.59375 C 24.3125 17.59375 24.167969 17.992188 24.152344 18.085938 C 24.132812 18.183594 24.117188 18.566406 24.117188 18.679688 C 24.117188 18.792969 24.101562 19.351562 24.101562 19.351562 L 23.765625 20.070312 L 23.6875 19.671875 L 23.542969 19.300781 L 23.304688 18.726562 L 23.304688 18.070312 C 23.304688 18.070312 23.273438 17.734375 23.367188 17.6875 C 23.464844 17.640625 23.640625 17.511719 23.640625 17.511719 L 23.941406 17.320312 Z M 24.183594 17.082031"/></g></svg>