<svg xmlns="http://www.w3.org/2000/svg" xmlns:xlink="http://www.w3.org/1999/xlink" width="32pt" height="32pt" version="1.1" viewBox="0 0 32 32"><g id="surface1"><path style="stroke:none;fill-rule:nonzero;fill:#fff;fill-opacity:1" d="M 28.070312 6.617188 L 17.96875 0.617188 C 16.761719 -0.101562 15.273438 -0.101562 14.070312 0.617188 L 3.96875 6.617188 C 2.761719 7.332031 2.019531 8.65625 2.019531 10.085938 L 2.019531 22.082031 C 2.019531 23.511719 2.761719 24.835938 3.96875 25.550781 L 14.070312 31.542969 C 14.667969 31.898438 15.34375 32.082031 16.019531 32.082031 C 16.695312 32.082031 17.363281 31.898438 17.96875 31.542969 L 28.070312 25.550781 C 29.273438 24.832031 30.019531 23.511719 30.019531 22.082031 L 30.019531 10.085938 C 30.019531 8.65625 29.273438 7.332031 28.070312 6.617188 Z M 28.070312 6.617188"/><path style="stroke:none;fill-rule:nonzero;fill:#283037;fill-opacity:1" d="M 28.070312 6.617188 L 17.96875 0.617188 C 17.367188 0.261719 16.695312 0.0820312 16.019531 0.0820312 C 15.34375 0.0820312 14.675781 0.261719 14.070312 0.617188 L 3.96875 6.617188 C 2.761719 7.332031 2.019531 8.65625 2.019531 10.085938 L 2.019531 22.082031 C 2.019531 23.511719 2.761719 24.835938 3.96875 25.550781 L 14.070312 31.542969 C 14.667969 31.898438 15.34375 32.082031 16.019531 32.082031 C 16.695312 32.082031 17.363281 31.898438 17.96875 31.542969 L 28.070312 25.550781 C 29.273438 24.832031 30.019531 23.511719 30.019531 22.082031 L 30.019531 10.085938 C 30.019531 8.65625 29.273438 7.332031 28.070312 6.617188 Z M 14.425781 30.929688 L 4.324219 24.9375 C 3.335938 24.351562 2.726562 23.257812 2.726562 22.082031 L 2.726562 10.085938 C 2.726562 8.914062 3.335938 7.820312 4.324219 7.230469 L 14.425781 1.238281 C 14.914062 0.949219 15.460938 0.800781 16.019531 0.800781 C 16.574219 0.800781 17.132812 0.949219 17.613281 1.238281 L 27.710938 7.230469 C 28.542969 7.726562 29.105469 8.582031 29.261719 9.542969 C 28.925781 8.832031 28.175781 8.632812 27.292969 9.148438 L 17.738281 15.054688 C 16.542969 15.75 15.667969 16.539062 15.667969 17.96875 L 15.667969 29.742188 C 15.667969 30.605469 16.011719 31.164062 16.550781 31.324219 C 16.375 31.355469 16.199219 31.375 16.019531 31.375 C 15.460938 31.367188 14.90625 31.21875 14.425781 30.929688 Z M 14.425781 30.929688"/><path style="stroke:none;fill-rule:nonzero;fill:#4da825;fill-opacity:1" d="M 25.425781 23.238281 L 22.90625 24.742188 C 22.835938 24.78125 22.789062 24.824219 22.789062 24.90625 L 22.789062 25.5625 C 22.789062 25.644531 22.84375 25.675781 22.90625 25.636719 L 25.460938 24.085938 C 25.53125 24.050781 25.539062 23.976562 25.539062 23.894531 L 25.539062 23.3125 C 25.542969 23.230469 25.488281 23.199219 25.425781 23.238281 Z M 25.425781 23.238281"/><path style="stroke:none;fill-rule:nonzero;fill:#fff;fill-opacity:1" d="M 20.070312 17.699219 C 20.148438 17.65625 20.21875 17.710938 20.21875 17.820312 L 20.226562 18.6875 C 20.585938 18.542969 20.90625 18.507812 21.195312 18.570312 C 21.257812 18.585938 21.28125 18.667969 21.257812 18.769531 L 21.0625 19.539062 C 21.050781 19.59375 21.011719 19.65625 20.976562 19.695312 C 20.957031 19.710938 20.945312 19.726562 20.925781 19.730469 C 20.898438 19.742188 20.875 19.75 20.851562 19.742188 C 20.71875 19.710938 20.40625 19.644531 19.917969 19.894531 C 19.40625 20.15625 19.226562 20.601562 19.230469 20.929688 C 19.238281 21.324219 19.4375 21.449219 20.136719 21.457031 C 21.070312 21.46875 21.476562 21.882812 21.480469 22.820312 C 21.492188 23.742188 21 24.730469 20.242188 25.34375 L 20.261719 26.207031 C 20.261719 26.3125 20.195312 26.429688 20.113281 26.46875 L 19.601562 26.761719 C 19.519531 26.804688 19.449219 26.757812 19.449219 26.648438 L 19.445312 25.800781 C 19.007812 25.980469 18.5625 26.023438 18.28125 25.914062 C 18.226562 25.894531 18.207031 25.8125 18.226562 25.726562 L 18.414062 24.945312 C 18.425781 24.882812 18.460938 24.820312 18.507812 24.78125 C 18.523438 24.769531 18.539062 24.757812 18.554688 24.742188 C 18.585938 24.730469 18.613281 24.726562 18.636719 24.738281 C 18.945312 24.835938 19.332031 24.792969 19.707031 24.601562 C 20.179688 24.355469 20.5 23.875 20.492188 23.386719 C 20.488281 22.949219 20.25 22.769531 19.675781 22.761719 C 18.945312 22.761719 18.257812 22.617188 18.242188 21.539062 C 18.238281 20.648438 18.699219 19.726562 19.429688 19.136719 L 19.425781 18.269531 C 19.425781 18.164062 19.488281 18.042969 19.574219 18 Z M 20.070312 17.699219"/></g></svg>