<svg xmlns="http://www.w3.org/2000/svg" xmlns:xlink="http://www.w3.org/1999/xlink" width="32pt" height="32pt" version="1.1" viewBox="0 0 32 32"><g id="surface1"><path style="stroke:none;fill-rule:nonzero;fill:#4e7896;fill-opacity:1" d="M 11.621094 24.738281 C 11.621094 24.738281 10.390625 25.488281 12.476562 25.703125 C 14.988281 26.023438 16.324219 25.96875 19.101562 25.433594 C 19.660156 25.777344 20.25 26.0625 20.863281 26.289062 C 14.613281 28.960938 6.703125 26.128906 11.621094 24.738281 Z M 10.820312 21.265625 C 10.820312 21.265625 9.484375 22.28125 11.570312 22.496094 C 14.296875 22.765625 16.433594 22.816406 20.121094 22.070312 C 20.480469 22.433594 20.917969 22.707031 21.402344 22.871094 C 13.867188 25.113281 5.425781 23.085938 10.820312 21.269531 Z M 25.570312 27.355469 C 25.570312 27.355469 26.476562 28.105469 24.554688 28.691406 C 20.972656 29.761719 9.539062 30.082031 6.335938 28.691406 C 5.210938 28.214844 7.347656 27.519531 8.035156 27.410156 C 8.730469 27.25 9.105469 27.25 9.105469 27.25 C 7.875 26.394531 0.929688 29.015625 5.578125 29.761719 C 18.347656 31.84375 28.875 28.851562 25.5625 27.355469 Z M 12.199219 17.632812 C 12.199219 17.632812 6.375 19.023438 10.117188 19.503906 C 11.71875 19.71875 14.871094 19.664062 17.808594 19.449219 C 20.214844 19.234375 22.621094 18.808594 22.621094 18.808594 C 22.621094 18.808594 21.765625 19.183594 21.175781 19.558594 C 15.246094 21.109375 3.863281 20.414062 7.125 18.808594 C 9.902344 17.472656 12.199219 17.636719 12.199219 17.636719 Z M 22.621094 23.457031 C 28.605469 20.355469 25.824219 17.367188 23.902344 17.738281 C 23.421875 17.847656 23.207031 17.953125 23.207031 17.953125 C 23.207031 17.953125 23.367188 17.632812 23.742188 17.527344 C 27.535156 16.191406 30.527344 21.535156 22.511719 23.617188 C 22.511719 23.617188 22.5625 23.5625 22.617188 23.457031 Z M 12.789062 31.898438 C 18.558594 32.273438 27.378906 31.683594 27.589844 28.960938 C 27.589844 28.960938 27.164062 30.027344 22.835938 30.828125 C 17.917969 31.738281 11.828125 31.628906 8.246094 31.042969 C 8.246094 31.042969 8.996094 31.683594 12.789062 31.898438 Z M 12.789062 31.898438"/><path style="stroke:none;fill-rule:nonzero;fill:#f58219;fill-opacity:1" d="M 18.996094 0 C 18.996094 0 22.308594 3.367188 15.84375 8.441406 C 10.660156 12.558594 14.667969 14.90625 15.84375 17.578125 C 12.796875 14.855469 10.609375 12.449219 12.105469 10.207031 C 14.292969 6.894531 20.332031 5.300781 18.996094 0 Z M 17.296875 15.335938 C 18.847656 17.097656 16.867188 18.703125 16.867188 18.703125 C 16.867188 18.703125 20.824219 16.671875 19.007812 14.160156 C 17.351562 11.757812 16.066406 10.578125 23.011719 6.574219 C 23.011719 6.574219 12.058594 9.296875 17.296875 15.335938 Z M 17.296875 15.335938"/></g></svg>