<svg xmlns="http://www.w3.org/2000/svg" xmlns:xlink="http://www.w3.org/1999/xlink" width="32pt" height="32pt" version="1.1" viewBox="0 0 32 32"><g id="surface1"><path style="stroke:none;fill-rule:nonzero;fill:#e44d26;fill-opacity:1" d="M 9.324219 25.671875 L 7.839844 9.003906 L 24.160156 9.003906 L 22.675781 25.664062 L 15.988281 27.519531 Z M 9.324219 25.671875"/><path style="stroke:none;fill-rule:nonzero;fill:#f16529;fill-opacity:1" d="M 16 26.105469 L 21.402344 24.609375 L 22.675781 10.367188 L 16 10.367188 Z M 16 26.105469"/><path style="stroke:none;fill-rule:nonzero;fill:#ebebeb;fill-opacity:1" d="M 16 16.550781 L 13.292969 16.550781 L 13.105469 14.457031 L 16 14.457031 L 16 12.414062 L 10.875 12.414062 L 10.925781 12.960938 L 11.425781 18.59375 L 16 18.59375 Z M 16 16.550781"/><path style="stroke:none;fill-rule:nonzero;fill:#ebebeb;fill-opacity:1" d="M 16 21.855469 L 15.992188 21.863281 L 13.714844 21.242188 L 13.566406 19.617188 L 11.519531 19.617188 L 11.800781 22.824219 L 15.992188 23.988281 L 16 23.980469 Z M 16 21.855469"/><path style="stroke:none;fill-rule:nonzero;fill:#000;fill-opacity:1" d="M 9.355469 4.480469 L 10.394531 4.480469 L 10.394531 5.503906 L 11.339844 5.503906 L 11.339844 4.480469 L 12.378906 4.480469 L 12.378906 7.585938 L 11.339844 7.585938 L 11.339844 6.539062 L 10.394531 6.539062 L 10.394531 7.585938 L 9.355469 7.585938 Z M 9.355469 4.480469"/><path style="stroke:none;fill-rule:nonzero;fill:#000;fill-opacity:1" d="M 13.746094 5.511719 L 12.832031 5.511719 L 12.832031 4.480469 L 15.699219 4.480469 L 15.699219 5.511719 L 14.785156 5.511719 L 14.785156 7.585938 L 13.746094 7.585938 Z M 13.746094 5.511719"/><path style="stroke:none;fill-rule:nonzero;fill:#000;fill-opacity:1" d="M 16.160156 4.480469 L 17.242188 4.480469 L 17.90625 5.574219 L 18.574219 4.480469 L 19.65625 4.480469 L 19.65625 7.585938 L 18.625 7.585938 L 18.625 6.046875 L 17.90625 7.15625 L 17.886719 7.15625 L 17.171875 6.046875 L 17.171875 7.589844 L 16.152344 7.589844 L 16.152344 4.480469 Z M 16.160156 4.480469"/><path style="stroke:none;fill-rule:nonzero;fill:#000;fill-opacity:1" d="M 20.171875 4.480469 L 21.210938 4.480469 L 21.210938 6.558594 L 22.667969 6.558594 L 22.667969 7.585938 L 20.171875 7.585938 Z M 20.171875 4.480469"/><path style="stroke:none;fill-rule:nonzero;fill:#fff;fill-opacity:1" d="M 15.992188 16.550781 L 15.992188 18.59375 L 18.507812 18.59375 L 18.273438 21.242188 L 15.992188 21.855469 L 15.992188 23.988281 L 20.179688 22.824219 L 20.210938 22.476562 L 20.691406 17.101562 L 20.742188 16.550781 Z M 15.992188 16.550781"/><path style="stroke:none;fill-rule:nonzero;fill:#fff;fill-opacity:1" d="M 15.992188 12.414062 L 15.992188 14.457031 L 20.929688 14.457031 L 20.972656 13.996094 L 21.0625 12.960938 L 21.113281 12.414062 Z M 15.992188 12.414062"/></g></svg>