<svg xmlns="http://www.w3.org/2000/svg" xmlns:xlink="http://www.w3.org/1999/xlink" width="32pt" height="32pt" version="1.1" viewBox="0 0 32 32"><g id="surface1"><path style="stroke:none;fill-rule:nonzero;fill:#000;fill-opacity:1" d="M 29.773438 6.609375 L 18.226562 0.65625 C 16.859375 -0.046875 15.160156 -0.046875 13.792969 0.65625 L 2.246094 6.609375 C 0.847656 7.332031 -0.00390625 8.640625 0 10.050781 L 0 21.953125 C -0.0078125 23.359375 0.835938 24.667969 2.226562 25.394531 L 13.773438 31.347656 C 15.140625 32.050781 16.839844 32.050781 18.207031 31.347656 L 29.753906 25.394531 C 31.144531 24.667969 31.988281 23.359375 31.980469 21.953125 L 31.980469 10.050781 C 31.992188 8.648438 31.15625 7.339844 29.773438 6.609375 Z M 20.832031 25.191406 L 20.832031 26.042969 C 20.832031 26.148438 20.765625 26.25 20.664062 26.304688 L 20.078125 26.597656 C 19.984375 26.636719 19.910156 26.597656 19.910156 26.484375 L 19.910156 25.644531 C 19.496094 25.820312 19.023438 25.859375 18.578125 25.757812 C 18.507812 25.714844 18.480469 25.636719 18.515625 25.566406 L 18.722656 24.792969 C 18.742188 24.730469 18.78125 24.671875 18.839844 24.625 C 18.855469 24.613281 18.875 24.601562 18.898438 24.589844 C 18.925781 24.578125 18.960938 24.578125 18.988281 24.589844 C 19.398438 24.6875 19.832031 24.636719 20.199219 24.457031 C 20.730469 24.230469 21.078125 23.769531 21.101562 23.257812 C 21.101562 22.824219 20.828125 22.640625 20.167969 22.636719 C 19.328125 22.636719 18.554688 22.496094 18.535156 21.421875 C 18.554688 20.496094 19.050781 19.621094 19.886719 19.042969 L 19.886719 18.179688 C 19.886719 18.070312 19.953125 17.96875 20.058594 17.914062 L 20.621094 17.601562 C 20.714844 17.558594 20.792969 17.601562 20.792969 17.714844 L 20.792969 18.582031 C 21.136719 18.445312 21.523438 18.40625 21.894531 18.464844 C 21.976562 18.503906 22.007812 18.59375 21.96875 18.664062 L 21.769531 19.433594 C 21.753906 19.488281 21.71875 19.542969 21.671875 19.585938 C 21.652344 19.601562 21.636719 19.613281 21.613281 19.625 C 21.585938 19.632812 21.558594 19.632812 21.53125 19.625 C 21.164062 19.554688 20.785156 19.609375 20.464844 19.773438 C 19.988281 19.953125 19.675781 20.355469 19.660156 20.804688 C 19.660156 21.195312 19.898438 21.316406 20.695312 21.328125 C 21.761719 21.328125 22.222656 21.75 22.234375 22.679688 C 22.214844 23.65625 21.703125 24.574219 20.832031 25.191406 Z M 26.878906 23.75 C 26.894531 23.824219 26.859375 23.898438 26.789062 23.945312 L 23.871094 25.484375 C 23.84375 25.503906 23.804688 25.507812 23.773438 25.488281 C 23.742188 25.472656 23.726562 25.441406 23.734375 25.410156 L 23.734375 24.753906 C 23.738281 24.683594 23.789062 24.621094 23.867188 24.59375 L 26.742188 23.101562 C 26.769531 23.078125 26.8125 23.078125 26.84375 23.09375 C 26.875 23.109375 26.886719 23.140625 26.878906 23.171875 Z M 28.894531 9.117188 L 17.96875 14.976562 C 16.605469 15.675781 15.601562 16.441406 15.601562 17.867188 L 15.601562 29.550781 C 15.601562 30.40625 16.007812 30.949219 16.609375 31.117188 C 16.410156 31.152344 16.210938 31.167969 16.007812 31.171875 C 15.363281 31.167969 14.734375 31.019531 14.183594 30.734375 L 2.636719 24.785156 C 1.496094 24.183594 0.800781 23.109375 0.804688 21.953125 L 0.804688 10.050781 C 0.800781 8.894531 1.496094 7.816406 2.636719 7.214844 L 14.183594 1.265625 C 15.300781 0.691406 16.695312 0.691406 17.8125 1.265625 L 29.359375 7.214844 C 30.3125 7.714844 30.960938 8.554688 31.132812 9.507812 C 30.757812 8.800781 29.894531 8.605469 28.890625 9.117188 Z M 28.894531 9.117188"/></g></svg>