<svg xmlns="http://www.w3.org/2000/svg" xmlns:xlink="http://www.w3.org/1999/xlink" width="59pt" height="32pt" version="1.1" viewBox="0 0 59 32"><defs><clipPath id="clip1"><path d="M 0.828125 15.984375 C 0.828125 24.351562 13.667969 31.132812 29.507812 31.132812 C 45.347656 31.132812 58.1875 24.351562 58.1875 15.984375 C 58.1875 7.617188 45.347656 0.832031 29.507812 0.832031 C 13.667969 0.832031 0.828125 7.617188 0.828125 15.984375"/></clipPath><radialGradient id="radial0" cx="0" cy="0" r="1" fx="0" fy="0" gradientTransform="matrix(37.658958,0,0,37.81853,18.048525,6.15957)" gradientUnits="userSpaceOnUse"><stop offset="0" style="stop-color:#aeb2d5;stop-opacity:1"/><stop offset=".3" style="stop-color:#aeb2d5;stop-opacity:1"/><stop offset=".75" style="stop-color:#484c89;stop-opacity:1"/><stop offset="1" style="stop-color:#484c89;stop-opacity:1"/></radialGradient></defs><g id="surface1"><g clip-path="url(#clip1)" clip-rule="nonzero"><path style="stroke:none;fill-rule:nonzero;fill:url(#radial0)" d="M 0.828125 15.984375 C 0.828125 24.351562 13.667969 31.132812 29.507812 31.132812 C 45.347656 31.132812 58.1875 24.351562 58.1875 15.984375 C 58.1875 7.617188 45.347656 0.832031 29.507812 0.832031 C 13.667969 0.832031 0.828125 7.617188 0.828125 15.984375"/></g><path style="stroke:none;fill-rule:nonzero;fill:#777bb3;fill-opacity:1" d="M 29.507812 30.007812 C 44.726562 30.007812 57.066406 23.730469 57.066406 15.984375 C 57.066406 8.238281 44.726562 1.957031 29.507812 1.957031 C 14.289062 1.957031 1.949219 8.238281 1.949219 15.984375 C 1.949219 23.730469 14.289062 30.007812 29.507812 30.007812"/><path style="stroke:none;fill-rule:nonzero;fill:#000;fill-opacity:1" d="M 16.410156 17.722656 C 17.664062 17.722656 18.597656 17.492188 19.1875 17.035156 C 19.773438 16.582031 20.175781 15.796875 20.386719 14.703125 C 20.585938 13.683594 20.511719 12.96875 20.164062 12.585938 C 19.8125 12.191406 19.046875 11.992188 17.894531 11.992188 L 15.894531 11.992188 L 14.785156 17.722656 Z M 9.871094 24.78125 C 9.777344 24.78125 9.6875 24.738281 9.628906 24.664062 C 9.570312 24.59375 9.546875 24.5 9.5625 24.40625 L 12.503906 9.226562 C 12.53125 9.078125 12.660156 8.972656 12.808594 8.972656 L 19.140625 8.972656 C 21.132812 8.972656 22.613281 9.515625 23.542969 10.585938 C 24.480469 11.660156 24.769531 13.164062 24.402344 15.054688 C 24.253906 15.828125 24 16.542969 23.640625 17.183594 C 23.285156 17.824219 22.8125 18.417969 22.242188 18.945312 C 21.554688 19.589844 20.777344 20.058594 19.933594 20.332031 C 19.105469 20.605469 18.039062 20.742188 16.765625 20.742188 L 14.199219 20.742188 L 13.46875 24.527344 C 13.441406 24.671875 13.3125 24.78125 13.164062 24.78125 Z M 9.871094 24.78125"/><path style="stroke:none;fill-rule:nonzero;fill:#fff;fill-opacity:1" d="M 16.152344 12.304688 L 17.894531 12.304688 C 19.285156 12.304688 19.769531 12.613281 19.933594 12.796875 C 20.207031 13.097656 20.257812 13.738281 20.082031 14.644531 C 19.886719 15.660156 19.519531 16.382812 19 16.785156 C 18.460938 17.199219 17.59375 17.410156 16.410156 17.410156 L 15.164062 17.410156 Z M 19.140625 8.660156 L 12.808594 8.660156 C 12.511719 8.660156 12.253906 8.871094 12.199219 9.164062 L 9.257812 24.347656 C 9.222656 24.53125 9.269531 24.71875 9.390625 24.863281 C 9.507812 25.007812 9.683594 25.09375 9.871094 25.09375 L 13.164062 25.09375 C 13.460938 25.09375 13.71875 24.878906 13.773438 24.585938 L 14.457031 21.054688 L 16.765625 21.054688 C 18.070312 21.054688 19.167969 20.914062 20.03125 20.628906 C 20.917969 20.339844 21.730469 19.851562 22.453125 19.175781 C 23.050781 18.621094 23.542969 18.003906 23.914062 17.335938 C 24.285156 16.664062 24.554688 15.917969 24.707031 15.117188 C 25.09375 13.125 24.78125 11.53125 23.777344 10.378906 C 22.785156 9.238281 21.226562 8.660156 19.140625 8.660156 M 14.40625 18.035156 L 16.410156 18.035156 C 17.738281 18.035156 18.726562 17.785156 19.378906 17.28125 C 20.027344 16.777344 20.464844 15.941406 20.695312 14.765625 C 20.910156 13.636719 20.8125 12.839844 20.394531 12.375 C 19.980469 11.914062 19.144531 11.679688 17.894531 11.679688 L 15.636719 11.679688 L 14.40625 18.035156 M 19.140625 9.285156 C 21.046875 9.285156 22.4375 9.785156 23.308594 10.789062 C 24.183594 11.796875 24.445312 13.195312 24.097656 14.996094 C 23.953125 15.738281 23.710938 16.414062 23.371094 17.03125 C 23.027344 17.644531 22.582031 18.207031 22.03125 18.714844 C 21.371094 19.332031 20.640625 19.773438 19.835938 20.035156 C 19.035156 20.300781 18.011719 20.429688 16.765625 20.429688 L 13.945312 20.429688 L 13.164062 24.46875 L 9.871094 24.46875 L 12.808594 9.285156 L 19.140625 9.285156"/><path style="stroke:none;fill-rule:nonzero;fill:#000;fill-opacity:1" d="M 31.953125 20.742188 C 31.863281 20.742188 31.773438 20.703125 31.714844 20.628906 C 31.65625 20.558594 31.632812 20.460938 31.648438 20.371094 L 32.949219 13.652344 C 33.074219 13.015625 33.042969 12.554688 32.863281 12.363281 C 32.753906 12.242188 32.425781 12.046875 31.453125 12.046875 L 29.097656 12.046875 L 27.460938 20.488281 C 27.433594 20.636719 27.304688 20.742188 27.15625 20.742188 L 23.890625 20.742188 C 23.796875 20.742188 23.707031 20.703125 23.648438 20.628906 C 23.589844 20.558594 23.566406 20.460938 23.585938 20.371094 L 26.523438 5.1875 C 26.550781 5.042969 26.679688 4.9375 26.828125 4.9375 L 30.09375 4.9375 C 30.1875 4.9375 30.277344 4.976562 30.335938 5.050781 C 30.394531 5.121094 30.417969 5.214844 30.402344 5.308594 L 29.691406 8.972656 L 32.226562 8.972656 C 34.15625 8.972656 35.464844 9.3125 36.226562 10.015625 C 37.003906 10.734375 37.246094 11.878906 36.945312 13.425781 L 35.578125 20.488281 C 35.550781 20.636719 35.421875 20.742188 35.273438 20.742188 Z M 31.953125 20.742188"/><path style="stroke:none;fill-rule:nonzero;fill:#fff;fill-opacity:1" d="M 30.09375 4.625 L 26.828125 4.625 C 26.53125 4.625 26.273438 4.835938 26.21875 5.128906 L 23.277344 20.3125 C 23.242188 20.496094 23.292969 20.683594 23.410156 20.828125 C 23.527344 20.972656 23.703125 21.054688 23.890625 21.054688 L 27.15625 21.054688 C 27.453125 21.054688 27.710938 20.84375 27.769531 20.550781 L 29.351562 12.359375 L 31.453125 12.359375 C 32.421875 12.359375 32.625 12.566406 32.636719 12.574219 C 32.695312 12.636719 32.769531 12.933594 32.644531 13.59375 L 31.34375 20.3125 C 31.308594 20.496094 31.355469 20.683594 31.472656 20.828125 C 31.59375 20.972656 31.769531 21.054688 31.953125 21.054688 L 35.273438 21.054688 C 35.570312 21.054688 35.828125 20.84375 35.882812 20.550781 L 37.25 13.484375 C 37.574219 11.824219 37.296875 10.582031 36.4375 9.785156 C 35.613281 9.027344 34.238281 8.660156 32.226562 8.660156 L 30.070312 8.660156 L 30.707031 5.367188 C 30.742188 5.183594 30.695312 4.996094 30.574219 4.851562 C 30.457031 4.707031 30.28125 4.625 30.09375 4.625 M 30.09375 5.25 L 29.3125 9.285156 L 32.226562 9.285156 C 34.054688 9.285156 35.320312 9.605469 36.015625 10.246094 C 36.710938 10.886719 36.917969 11.929688 36.640625 13.367188 L 35.273438 20.429688 L 31.953125 20.429688 L 33.253906 13.714844 C 33.402344 12.949219 33.347656 12.425781 33.089844 12.148438 C 32.835938 11.871094 32.289062 11.734375 31.453125 11.734375 L 28.839844 11.734375 L 27.15625 20.429688 L 23.890625 20.429688 L 26.828125 5.25 L 30.09375 5.25"/><path style="stroke:none;fill-rule:nonzero;fill:#000;fill-opacity:1" d="M 42.117188 17.722656 C 43.367188 17.722656 44.300781 17.492188 44.894531 17.035156 C 45.476562 16.582031 45.882812 15.796875 46.09375 14.703125 C 46.292969 13.683594 46.214844 12.96875 45.871094 12.585938 C 45.515625 12.191406 44.753906 11.992188 43.597656 11.992188 L 41.597656 11.992188 L 40.492188 17.722656 Z M 35.574219 24.78125 C 35.480469 24.78125 35.394531 24.738281 35.335938 24.664062 C 35.277344 24.59375 35.25 24.5 35.269531 24.40625 L 38.207031 9.226562 C 38.238281 9.078125 38.363281 8.972656 38.511719 8.972656 L 44.847656 8.972656 C 46.835938 8.972656 48.316406 9.515625 49.25 10.585938 C 50.1875 11.660156 50.472656 13.164062 50.109375 15.054688 C 49.960938 15.828125 49.703125 16.542969 49.347656 17.183594 C 48.992188 17.824219 48.519531 18.417969 47.945312 18.945312 C 47.257812 19.589844 46.484375 20.058594 45.640625 20.332031 C 44.808594 20.605469 43.742188 20.742188 42.46875 20.742188 L 39.90625 20.742188 L 39.175781 24.527344 C 39.144531 24.671875 39.015625 24.78125 38.867188 24.78125 Z M 35.574219 24.78125"/><path style="stroke:none;fill-rule:nonzero;fill:#fff;fill-opacity:1" d="M 41.855469 12.304688 L 43.597656 12.304688 C 44.992188 12.304688 45.476562 12.613281 45.640625 12.796875 C 45.910156 13.097656 45.964844 13.738281 45.789062 14.644531 C 45.589844 15.660156 45.226562 16.382812 44.703125 16.785156 C 44.167969 17.199219 43.296875 17.410156 42.117188 17.410156 L 40.867188 17.410156 Z M 44.847656 8.660156 L 38.511719 8.660156 C 38.214844 8.660156 37.960938 8.871094 37.902344 9.164062 L 34.964844 24.347656 C 34.929688 24.53125 34.976562 24.71875 35.09375 24.863281 C 35.214844 25.007812 35.390625 25.09375 35.574219 25.09375 L 38.867188 25.09375 C 39.167969 25.09375 39.421875 24.878906 39.480469 24.585938 L 40.164062 21.054688 L 42.46875 21.054688 C 43.777344 21.054688 44.875 20.914062 45.734375 20.628906 C 46.621094 20.339844 47.4375 19.851562 48.160156 19.175781 C 48.753906 18.621094 49.246094 18.003906 49.617188 17.335938 C 49.992188 16.664062 50.257812 15.917969 50.414062 15.117188 C 50.800781 13.125 50.484375 11.53125 49.484375 10.378906 C 48.492188 9.238281 46.929688 8.660156 44.847656 8.660156 M 40.113281 18.035156 L 42.117188 18.035156 C 43.445312 18.035156 44.433594 17.785156 45.082031 17.28125 C 45.734375 16.777344 46.171875 15.941406 46.398438 14.765625 C 46.617188 13.636719 46.519531 12.839844 46.101562 12.375 C 45.683594 11.914062 44.851562 11.679688 43.597656 11.679688 L 41.34375 11.679688 L 40.113281 18.035156 M 44.847656 9.285156 C 46.75 9.285156 48.140625 9.785156 49.015625 10.789062 C 49.886719 11.796875 50.152344 13.195312 49.804688 14.996094 C 49.660156 15.738281 49.417969 16.414062 49.074219 17.03125 C 48.734375 17.644531 48.285156 18.207031 47.734375 18.714844 C 47.078125 19.332031 46.347656 19.773438 45.542969 20.035156 C 44.738281 20.300781 43.714844 20.429688 42.46875 20.429688 L 39.648438 20.429688 L 38.867188 24.46875 L 35.574219 24.46875 L 38.511719 9.285156 L 44.847656 9.285156"/></g></svg>