<svg xmlns="http://www.w3.org/2000/svg" xmlns:xlink="http://www.w3.org/1999/xlink" width="32pt" height="32pt" version="1.1" viewBox="0 0 32 32"><g id="surface1"><path style="stroke:none;fill-rule:nonzero;fill:#f7df1e;fill-opacity:1" d="M 4.320312 4.320312 L 27.679688 4.320312 L 27.679688 27.679688 L 4.320312 27.679688 Z M 4.320312 4.320312"/><path style="stroke:none;fill-rule:nonzero;fill:#000;fill-opacity:1" d="M 10.464844 23.839844 L 12.25 22.757812 C 12.59375 23.371094 12.910156 23.886719 13.65625 23.886719 C 14.378906 23.886719 14.835938 23.601562 14.835938 22.503906 L 14.835938 15.046875 L 17.03125 15.046875 L 17.03125 22.539062 C 17.03125 24.8125 15.699219 25.847656 13.753906 25.847656 C 12 25.847656 10.980469 24.941406 10.464844 23.839844"/><path style="stroke:none;fill-rule:nonzero;fill:#000;fill-opacity:1" d="M 18.226562 23.601562 L 20.011719 22.566406 C 20.488281 23.335938 21.09375 23.898438 22.175781 23.898438 C 23.085938 23.898438 23.667969 23.441406 23.667969 22.816406 C 23.667969 22.0625 23.070312 21.796875 22.066406 21.355469 L 21.515625 21.121094 C 19.9375 20.449219 18.878906 19.597656 18.878906 17.8125 C 18.878906 16.167969 20.132812 14.910156 22.09375 14.910156 C 23.488281 14.910156 24.492188 15.398438 25.214844 16.664062 L 23.507812 17.761719 C 23.128906 17.089844 22.726562 16.820312 22.097656 16.820312 C 21.460938 16.820312 21.050781 17.230469 21.050781 17.761719 C 21.050781 18.417969 21.460938 18.6875 22.398438 19.089844 L 22.949219 19.328125 C 24.820312 20.128906 25.867188 20.941406 25.867188 22.777344 C 25.867188 24.753906 24.3125 25.835938 22.234375 25.835938 C 20.1875 25.847656 18.867188 24.875 18.226562 23.601562"/></g></svg>