<svg xmlns="http://www.w3.org/2000/svg" xmlns:xlink="http://www.w3.org/1999/xlink" width="32pt" height="32pt" version="1.1" viewBox="0 0 32 32"><g id="surface1"><path style="stroke:none;fill-rule:nonzero;fill:#0277bd;fill-opacity:1" d="M 16.03125 3.332031 C 14.996094 3.335938 14.277344 3.429688 13.40625 3.578125 C 10.84375 4.023438 10.375 4.960938 10.375 6.691406 L 10.375 9.332031 L 16.375 9.332031 L 16.375 10.667969 L 7.246094 10.667969 C 5.488281 10.667969 3.953125 11.496094 3.464844 13.480469 C 2.914062 15.757812 2.886719 17.183594 3.464844 19.5625 C 3.902344 21.335938 4.863281 22.667969 6.621094 22.667969 L 9.042969 22.667969 L 9.042969 19.265625 C 9.042969 17.285156 10.832031 15.332031 12.882812 15.332031 L 17.707031 15.332031 C 19.390625 15.332031 21.042969 14.09375 21.042969 12.414062 L 21.042969 6.691406 C 21.042969 5.066406 19.871094 3.847656 18.230469 3.578125 C 18.269531 3.574219 17.058594 3.328125 16.03125 3.332031 Z M 12.707031 6 C 13.257812 6 13.707031 6.453125 13.707031 7 C 13.707031 7.558594 13.257812 8 12.707031 8 C 12.152344 8 11.707031 7.558594 11.707031 7 C 11.707031 6.453125 12.152344 6 12.707031 6 Z M 12.707031 6"/><path style="stroke:none;fill-rule:nonzero;fill:#ffc107;fill-opacity:1" d="M 15.386719 28.667969 C 16.421875 28.664062 17.140625 28.570312 18.007812 28.421875 C 20.574219 27.976562 21.042969 27.039062 21.042969 25.308594 L 21.042969 22.667969 L 15.042969 22.667969 L 15.042969 21.332031 L 24.171875 21.332031 C 25.929688 21.332031 27.464844 20.503906 27.953125 18.519531 C 28.503906 16.242188 28.527344 14.816406 27.953125 12.4375 C 27.515625 10.664062 26.554688 9.332031 24.796875 9.332031 L 22.375 9.332031 L 22.375 12.734375 C 22.375 14.714844 20.585938 16.667969 18.53125 16.667969 L 13.707031 16.667969 C 12.027344 16.667969 10.375 17.90625 10.375 19.585938 L 10.375 25.308594 C 10.375 26.933594 11.546875 28.152344 13.1875 28.421875 C 13.144531 28.425781 14.355469 28.671875 15.386719 28.667969 Z M 18.707031 26 C 18.160156 26 17.707031 25.546875 17.707031 25 C 17.707031 24.441406 18.160156 24 18.707031 24 C 19.265625 24 19.707031 24.441406 19.707031 25 C 19.707031 25.546875 19.265625 26 18.707031 26 Z M 18.707031 26"/></g></svg>