<svg xmlns="http://www.w3.org/2000/svg" xmlns:xlink="http://www.w3.org/1999/xlink" width="32pt" height="32pt" version="1.1" viewBox="0 0 32 32"><defs><filter id="alpha" width="100%" height="100%" x="0%" y="0%" filterUnits="objectBoundingBox"><feColorMatrix in="SourceGraphic" type="matrix" values="0 0 0 0 1 0 0 0 0 1 0 0 0 0 1 0 0 0 1 0"/></filter><mask id="mask0"><g filter="url(#alpha)"><rect width="32" height="32" x="0" y="0" style="fill:#000;fill-opacity:.101961;stroke:none"/></g></mask><clipPath id="clip1"><rect width="32" height="32"/></clipPath><g id="surface6" clip-path="url(#clip1)"><path style="stroke:none;fill-rule:nonzero;fill:#fff;fill-opacity:1" d="M 4.910156 4.5 C 0.476562 8.449219 -1.402344 14.527344 0.0234375 20.289062 C 1.449219 26.050781 5.949219 30.550781 11.710938 31.976562 C 17.472656 33.402344 23.550781 31.523438 27.5 27.089844 Z M 4.910156 4.5"/></g></defs><g id="surface1"><path style="stroke:none;fill-rule:nonzero;fill:#004e8c;fill-opacity:1" d="M 32 16 C 32 24.835938 24.835938 32 16 32 C 7.164062 32 0 24.835938 0 16 C 0 7.164062 7.164062 0 16 0 C 24.835938 0 32 7.164062 32 16 Z M 32 16"/><use mask="url(#mask0)" xlink:href="#surface6"/><path style="stroke:none;fill-rule:nonzero;fill:#fff;fill-opacity:1" d="M 16.644531 9.699219 L 12 22.300781 L 10.355469 22.300781 L 5.785156 9.699219 L 7.429688 9.699219 L 10.929688 19.699219 C 11.050781 20.0625 11.136719 20.4375 11.183594 20.816406 L 11.21875 20.816406 C 11.273438 20.425781 11.367188 20.042969 11.5 19.675781 L 15.058594 9.675781 Z M 16.644531 9.699219"/><path style="stroke:none;fill-rule:nonzero;fill:#fff;fill-opacity:1" d="M 18.460938 22.300781 L 18.460938 9.699219 L 22.046875 9.699219 C 22.976562 9.648438 23.894531 9.933594 24.636719 10.5 C 25.261719 11.007812 25.617188 11.777344 25.59375 12.585938 C 25.605469 13.253906 25.394531 13.90625 25 14.445312 C 24.601562 14.980469 24.039062 15.375 23.398438 15.570312 L 23.398438 15.605469 C 24.171875 15.667969 24.898438 16.007812 25.441406 16.566406 C 25.964844 17.140625 26.238281 17.902344 26.203125 18.679688 C 26.238281 19.683594 25.8125 20.648438 25.046875 21.300781 C 24.226562 21.984375 23.183594 22.339844 22.121094 22.300781 Z M 19.960938 11.03125 L 19.960938 15.101562 L 21.460938 15.101562 C 22.144531 15.132812 22.816406 14.917969 23.355469 14.5 C 23.828125 14.085938 24.085938 13.476562 24.050781 12.851562 C 24.050781 11.625 23.246094 11.015625 21.636719 11.015625 Z M 19.960938 16.425781 L 19.960938 20.960938 L 21.960938 20.960938 C 22.679688 21 23.390625 20.785156 23.960938 20.34375 C 24.441406 19.921875 24.707031 19.300781 24.675781 18.660156 C 24.675781 17.171875 23.660156 16.429688 21.636719 16.429688 Z M 19.960938 16.425781"/></g></svg>